<svg width="75" height="75" viewBox="0 0 75 75" fill="none" xmlns="http://www.w3.org/2000/svg">
<path d="M59.3748 34.3748H24.4686L39.7186 19.1248C40.9373 17.9061 40.9373 15.9061 39.7186 14.6873C39.4295 14.3976 39.0861 14.1678 38.708 14.011C38.33 13.8542 37.9247 13.7734 37.5155 13.7734C37.1062 13.7734 36.7009 13.8542 36.3229 14.011C35.9448 14.1678 35.6014 14.3976 35.3123 14.6873L14.7186 35.2811C14.4289 35.5702 14.199 35.9136 14.0422 36.2916C13.8854 36.6697 13.8047 37.0749 13.8047 37.4842C13.8047 37.8935 13.8854 38.2987 14.0422 38.6768C14.199 39.0548 14.4289 39.3982 14.7186 39.6873L35.3123 60.2811C35.6016 60.5704 35.9451 60.7999 36.3231 60.9565C36.7011 61.113 37.1063 61.1936 37.5155 61.1936C37.9246 61.1936 38.3298 61.113 38.7078 60.9565C39.0858 60.7999 39.4293 60.5704 39.7186 60.2811C40.0079 59.9918 40.2374 59.6483 40.394 59.2703C40.5505 58.8923 40.6311 58.4871 40.6311 58.0779C40.6311 57.6688 40.5505 57.2636 40.394 56.8856C40.2374 56.5076 40.0079 56.1641 39.7186 55.8748L24.4686 40.6248H59.3748C61.0936 40.6248 62.4998 39.2186 62.4998 37.4998C62.4998 35.7811 61.0936 34.3748 59.3748 34.3748Z" fill="#A0C2AC"/>
</svg>
