<svg width="470" height="282" viewBox="0 0 470 282" fill="none" xmlns="http://www.w3.org/2000/svg">
<path d="M93.8333 211.125C87.6118 211.125 81.6451 208.654 77.2458 204.254C72.8465 199.855 70.375 193.888 70.375 187.667V93.8333C70.375 87.6118 72.8465 81.6451 77.2458 77.2458C81.6451 72.8465 87.6118 70.375 93.8333 70.375H234.583V211.125H93.8333Z" fill="white"/>
<path fill-rule="evenodd" clip-rule="evenodd" d="M375.333 0H70.375C51.7104 0 33.8102 7.41449 20.6124 20.6124C7.41449 33.8102 0 51.7104 0 70.375V211.125C0 229.79 7.41449 247.69 20.6124 260.888C33.8102 274.086 51.7104 281.5 70.375 281.5H375.333C393.998 281.5 411.898 274.086 425.096 260.888C438.294 247.69 445.708 229.79 445.708 211.125C451.93 211.125 457.897 208.654 462.296 204.254C466.695 199.855 469.167 193.888 469.167 187.667V93.8333C469.167 87.6118 466.695 81.6451 462.296 77.2458C457.897 72.8465 451.93 70.375 445.708 70.375C445.708 51.7104 438.294 33.8102 425.096 20.6124C411.898 7.41449 393.998 0 375.333 0ZM375.333 46.9167H70.375C64.1535 46.9167 58.1867 49.3882 53.7875 53.7875C49.3882 58.1868 46.9167 64.1535 46.9167 70.375V211.125C46.9167 217.347 49.3882 223.313 53.7875 227.713C58.1867 232.112 64.1535 234.583 70.375 234.583H375.333C381.555 234.583 387.522 232.112 391.921 227.713C396.32 223.313 398.792 217.347 398.792 211.125V70.375C398.792 64.1535 396.32 58.1868 391.921 53.7875C387.522 49.3882 381.555 46.9167 375.333 46.9167Z" fill="white"/>
</svg>
