<svg width="48" height="48" viewBox="0 0 48 48" fill="none" xmlns="http://www.w3.org/2000/svg">
<g clip-path="url(#clip0_622_10)">
<mask id="mask0_622_10" style="mask-type:luminance" maskUnits="userSpaceOnUse" x="0" y="0" width="48" height="48">
<path d="M0 0H48V48H0V0Z" fill="white"/>
</mask>
<g mask="url(#mask0_622_10)">
<path fill-rule="evenodd" clip-rule="evenodd" d="M0 0H48V48H0V0ZM23.404 13.826C25.034 14.5659 26.3299 15.8865 27.0391 17.5301C27.7483 19.1737 27.82 21.0225 27.24 22.716L34.815 28.599V26.26H36.448C36.7711 26.2604 37.0894 26.1824 37.3758 26.0328C37.6621 25.8831 37.9079 25.6663 38.0921 25.4008C38.2762 25.1354 38.3932 24.8292 38.4331 24.5086C38.473 24.188 38.4345 23.8625 38.321 23.56L34.087 12.287C33.738 11.357 33.062 10.737 32.212 9.957L31.915 9.682C29.921 7.833 27.692 6.482 23.404 6.105V13.825V13.826ZM17.404 6.241V13.846C15.6897 14.6249 14.3486 16.0444 13.6683 17.8002C12.9879 19.556 13.0224 21.5085 13.7643 23.2391C14.5062 24.9698 15.8965 26.3411 17.6373 27.059C19.378 27.777 21.3308 27.7845 23.077 27.08L33.662 35.3C33.405 35.42 33.118 35.488 32.815 35.488H28.522V42H11.41V30.008C9.684 28.216 6 23.742 6 17.975C6 14.3 8.415 7.595 17.404 6.24V6.241ZM21.404 15.092C22.2835 15.2578 23.108 15.6396 23.8035 16.203C24.4989 16.7663 25.0435 17.4937 25.3882 18.3196C25.733 19.1456 25.8671 20.0442 25.7786 20.9348C25.69 21.8254 25.3816 22.6801 24.881 23.422L38.714 34.16C39.1646 33.9266 39.6808 33.8523 40.1789 33.9492C40.6769 34.0462 41.1276 34.3086 41.4578 34.694C41.7879 35.0794 41.978 35.565 41.9974 36.072C42.0167 36.5791 41.8641 37.0778 41.5643 37.4872C41.2645 37.8966 40.8351 38.1926 40.3458 38.3272C39.8566 38.4618 39.3362 38.4271 38.8692 38.2286C38.4022 38.0302 38.0159 37.6798 37.7732 37.2342C37.5304 36.7886 37.4454 36.274 37.532 35.774L23.462 24.852C22.7994 25.306 22.0439 25.6066 21.2505 25.7317C20.4571 25.8568 19.6458 25.8033 18.8757 25.5752C18.1056 25.347 17.3961 24.95 16.7988 24.4129C16.2016 23.8759 15.7316 23.2124 15.4233 22.4707C15.1149 21.7291 14.9759 20.928 15.0163 20.1258C15.0567 19.3236 15.2756 18.5405 15.6569 17.8336C16.0383 17.1268 16.5726 16.5138 17.2208 16.0396C17.869 15.5653 18.6148 15.2416 19.404 15.092V6H21.404V15.092ZM22.202 20.4C22.202 20.8774 22.0124 21.3352 21.6748 21.6728C21.3372 22.0104 20.8794 22.2 20.402 22.2C19.9246 22.2 19.4668 22.0104 19.1292 21.6728C18.7916 21.3352 18.602 20.8774 18.602 20.4C18.602 19.9226 18.7916 19.4648 19.1292 19.1272C19.4668 18.7896 19.9246 18.6 20.402 18.6C20.8794 18.6 21.3372 18.7896 21.6748 19.1272C22.0124 19.4648 22.202 19.9226 22.202 20.4Z" fill="#0023C4"/>
</g>
</g>
<defs>
<clipPath id="clip0_622_10">
<rect width="48" height="48" fill="white"/>
</clipPath>
</defs>
</svg>
