<svg width="24" height="24" viewBox="0 0 24 24" fill="none" xmlns="http://www.w3.org/2000/svg">
<path d="M16.5 7.00009H14.414L15.707 5.70709C15.8945 5.51958 15.9998 5.26527 15.9998 5.00009C15.9998 4.73492 15.8945 4.4806 15.707 4.29309C15.5195 4.10559 15.2652 4.00024 15 4.00024C14.7348 4.00024 14.4805 4.10559 14.293 4.29309L10.586 8.00009L14.293 11.7071C14.3857 11.8003 14.4958 11.8742 14.6171 11.9247C14.7385 11.9752 14.8686 12.0011 15 12.0011C15.1314 12.0011 15.2615 11.9752 15.3829 11.9247C15.5042 11.8742 15.6143 11.8003 15.707 11.7071C15.7999 11.6143 15.8737 11.5041 15.924 11.3828C15.9743 11.2615 16.0002 11.1314 16.0002 11.0001C16.0002 10.8688 15.9743 10.7387 15.924 10.6174C15.8737 10.4961 15.7999 10.3859 15.707 10.2931L14.414 9.00009H16.5C17.879 9.00009 19 10.3461 19 12.0001C19 13.6541 17.654 15.0001 16 15.0001C15.7348 15.0001 15.4804 15.1054 15.2929 15.293C15.1054 15.4805 15 15.7349 15 16.0001C15 16.2653 15.1054 16.5197 15.2929 16.7072C15.4804 16.8947 15.7348 17.0001 16 17.0001C18.757 17.0001 21 14.7571 21 12.0001C21 9.24309 18.981 7.00009 16.5 7.00009ZM8.293 12.2931C8.20005 12.3859 8.12632 12.4961 8.07601 12.6174C8.0257 12.7387 7.9998 12.8688 7.9998 13.0001C7.9998 13.1314 8.0257 13.2615 8.07601 13.3828C8.12632 13.5041 8.20005 13.6143 8.293 13.7071L9.586 15.0001H7.5C6.121 15.0001 5 13.6541 5 12.0001C5 10.3461 6.346 9.00009 8 9.00009C8.26522 9.00009 8.51957 8.89474 8.70711 8.7072C8.89464 8.51966 9 8.26531 9 8.00009C9 7.73488 8.89464 7.48052 8.70711 7.29299C8.51957 7.10545 8.26522 7.00009 8 7.00009C5.243 7.00009 3 9.24309 3 12.0001C3 14.7571 5.019 17.0001 7.5 17.0001H9.586L8.293 18.2931C8.20016 18.3859 8.12651 18.4962 8.07626 18.6175C8.02601 18.7388 8.00015 18.8688 8.00015 19.0001C8.00015 19.1314 8.02601 19.2614 8.07626 19.3827C8.12651 19.504 8.20016 19.6142 8.293 19.7071C8.48051 19.8946 8.73482 19.9999 9 19.9999C9.1313 19.9999 9.26132 19.9741 9.38263 19.9238C9.50393 19.8736 9.61416 19.7999 9.707 19.7071L13.414 16.0001L9.707 12.2931C9.61421 12.2001 9.50401 12.1264 9.38269 12.0761C9.26138 12.0258 9.13133 11.9999 9 11.9999C8.86867 11.9999 8.73862 12.0258 8.61731 12.0761C8.49599 12.1264 8.38579 12.2001 8.293 12.2931Z" fill="#C1E0CC"/>
</svg>
