<svg width="403" height="502" viewBox="0 0 403 502" fill="none" xmlns="http://www.w3.org/2000/svg">
<rect width="388" height="502" fill="#A0C2AC"/>
<rect x="384.385" y="234.613" width="26" height="26" transform="rotate(45 384.385 234.613)" fill="#A0C2AC"/>
<path d="M73.2812 55.502C73.2373 60.8633 76.0059 65.7852 82.4219 67.7627L79.4775 72.1572C75.1709 70.6631 72.2485 67.8945 70.6006 64.291C68.7988 68.4658 65.5688 71.7617 60.7568 73.3877L57.8125 68.9053C64.668 66.708 67.5684 61.3467 67.6123 55.7656V52.1182H73.2812V55.502ZM91.8701 50.0527V73.4756H86.2891V61.9619H78.7744V57.3916H86.2891V50.0527H91.8701ZM78.2031 74.5303C86.7285 74.5303 91.958 77.3867 92.002 82.3086C91.958 87.2305 86.7285 90.043 78.2031 90.043C69.6777 90.043 64.4482 87.2305 64.4482 82.3086C64.4482 77.3867 69.6777 74.5303 78.2031 74.5303ZM78.2031 78.8809C72.8857 78.8809 70.0293 80.0234 70.0293 82.3086C70.0293 84.5059 72.8857 85.6924 78.2031 85.6924C83.5205 85.6924 86.4209 84.5059 86.4209 82.3086C86.4209 80.0234 83.5205 78.8809 78.2031 78.8809ZM132.405 73.124V77.4746H95.9307V73.124H111.355V70.8828C104.522 70.4434 100.677 68.312 100.721 64.7744C100.677 60.8193 105.599 58.71 114.168 58.71C122.693 58.71 127.615 60.8193 127.615 64.7744C127.615 68.312 123.77 70.4434 116.98 70.8828V73.124H132.405ZM128.274 84.9453V89.3398H100.325V79.3643H105.95V84.9453H128.274ZM130.516 53.3486V57.5674H97.6885V53.3486H111.355V49.833H116.98V53.3486H130.516ZM114.168 62.6211C108.807 62.6211 106.39 63.2363 106.434 64.7744C106.39 66.3125 108.807 66.9717 114.168 66.9717C119.441 66.9717 121.858 66.3125 121.858 64.7744C121.858 63.2363 119.441 62.6211 114.168 62.6211ZM154.22 53.876C154.176 66.1807 150.88 76.5078 136.466 83.9785L133.39 79.7598C139.718 76.4199 143.651 72.7065 145.958 68.29L134.356 69.3447L133.609 64.5986L147.716 63.7637C148.177 62.0718 148.463 60.27 148.639 58.3584H135.763V53.876H154.22ZM167.403 50.0527V90.043H161.822V70.0039H154.132V65.4336H161.822V50.0527H167.403ZM204.687 51.1514V55.3262H199.457V60.5996H204.423V64.7744H174.936V60.5996H179.857V55.3262H174.672V51.1514H204.687ZM207.938 66.8838V71.2783H171.464V66.8838H207.938ZM203.5 73.5635V83.4512H181.22V85.6484H204.555V89.7793H175.727V79.6279H197.963V77.6064H175.683V73.5635H203.5ZM185.482 60.5996H193.832V55.3262H185.482V60.5996ZM251.172 50.668V79.1885H248.403V50.668H251.172ZM252.446 86.1758V88.5049H226.431V76.2441H229.199V86.1758H252.446ZM230.342 53.4805C236.099 53.4805 240.361 57.3477 240.361 62.8848C240.361 68.4658 236.099 72.377 230.342 72.333C224.585 72.377 220.278 68.4658 220.322 62.8848C220.278 57.3477 224.585 53.4805 230.342 53.4805ZM230.342 55.8975C226.123 55.8975 223.003 58.8857 223.003 62.8848C223.003 66.9277 226.123 69.8721 230.342 69.8721C234.517 69.8721 237.681 66.9277 237.681 62.8848C237.681 58.8857 234.517 55.8975 230.342 55.8975ZM289.026 50.668V89.4717H286.302V67.9385H277.601V65.6094H286.302V50.668H289.026ZM261.78 77.5625C269.471 77.6064 274.085 77.3867 279.49 76.332L279.842 78.7051C274.217 79.6719 269.559 79.9355 261.78 79.9355H258.88V54.3154H276.985V56.6445H261.692V65.2139H275.14V67.543H261.692V77.5625H261.78ZM330.265 73.5195V75.8926H320.904V89.4277H318.136V75.8926H306.93V89.4277H304.117V75.8926H294.801V73.5195H330.265ZM302.228 52.2061V57.7871H322.838V52.2061H325.606V68.6416H299.459V52.2061H302.228ZM302.228 66.3125H322.838V60.0723H302.228V66.3125Z" fill="white"/>
<path d="M116.919 108.641C116.9 113.539 115.304 117.899 109.404 120.905L108.421 119.569C111.334 118.076 113.134 116.285 114.136 114.17L108.755 114.689L108.476 113.168L114.692 112.778C114.943 111.925 115.1 111.016 115.175 110.069H109.33V108.641H116.919ZM122.281 106.952V123.577H120.537V114.986H116.882V113.539H120.537V106.952H122.281ZM138.116 107.453V108.789H135.704V111.665H138.041V113.02H125.851V111.665H128.207V108.789H125.777V107.453H138.116ZM139.544 114.244V115.636H124.385V114.244H139.544ZM137.633 116.935V120.738H127.948V122.074H138.097V123.41H126.222V119.495H135.889V118.252H126.204V116.935H137.633ZM129.952 111.665H133.941V108.789H129.952V111.665ZM143.318 120.72L141.834 125.841H140.257L141.24 120.72H143.318ZM163.187 106.952V123.577H161.498V114.912H159.439V122.761H157.769V107.268H159.439V113.465H161.498V106.952H163.187ZM155.895 108.826V119.198H149.438V108.826H155.895ZM151.108 110.218V117.788H154.243V110.218H151.108ZM171.006 110.403C171.006 112.389 172.638 114.244 175.218 114.949L174.383 116.322C172.434 115.784 170.95 114.578 170.171 113.001C169.429 114.736 167.963 116.1 165.959 116.73L165.087 115.339C167.647 114.56 169.243 112.556 169.243 110.403V110.311H165.551V108.9H169.243V106.952H171.024V108.9H174.679V110.311H171.006V110.403ZM178.613 106.971V117.102H176.85V106.971H178.613ZM173.028 117.417C176.516 117.417 178.669 118.549 178.669 120.479C178.669 122.427 176.516 123.559 173.028 123.54C169.521 123.559 167.369 122.427 167.369 120.479C167.369 118.549 169.521 117.417 173.028 117.417ZM173.028 118.809C170.56 118.809 169.15 119.421 169.15 120.479C169.15 121.573 170.56 122.186 173.028 122.186C175.496 122.186 176.925 121.573 176.925 120.479C176.925 119.421 175.496 118.809 173.028 118.809ZM195.079 106.952V123.577H193.39V114.912H191.33V122.761H189.661V107.268H191.33V113.465H193.39V106.952H195.079ZM187.787 108.826V119.198H181.329V108.826H187.787ZM182.999 110.218V117.788H186.135V110.218H182.999ZM210.523 106.952V123.577H208.761V106.952H210.523ZM199.483 108.566V117.825C201.905 117.807 204.456 117.612 207.128 117.064L207.369 118.549C204.419 119.143 201.747 119.347 199.131 119.347H197.739V108.566H199.483ZM226.544 106.952V123.614H224.781V114.374H221.348V112.927H224.781V106.952H226.544ZM218.602 111.628C218.602 114.448 220.365 117.473 222.925 118.604L221.868 120.015C219.947 119.087 218.463 117.148 217.73 114.875C216.988 117.296 215.476 119.365 213.555 120.349L212.479 118.976C215.021 117.77 216.802 114.615 216.821 111.628V110.069H213.147V108.622H222.295V110.069H218.602V111.628ZM234.667 122.13C233.943 122.13 233.331 121.536 233.349 120.812C233.331 120.089 233.943 119.495 234.667 119.495C235.372 119.495 235.984 120.089 235.984 120.812C235.984 121.536 235.372 122.13 234.667 122.13ZM234.667 114.801C233.943 114.801 233.331 114.207 233.349 113.483C233.331 112.76 233.943 112.166 234.667 112.166C235.372 112.166 235.984 112.76 235.984 113.483C235.984 114.207 235.372 114.801 234.667 114.801ZM254.535 106.934V111.906H256.947V113.391H254.535V119.161H252.772V106.934H254.535ZM255.24 121.796V123.225H243.996V117.881H245.759V121.796H255.24ZM246.148 108.084C248.653 108.084 250.564 109.791 250.583 112.222C250.564 114.634 248.653 116.359 246.148 116.359C243.644 116.359 241.714 114.634 241.732 112.222C241.714 109.791 243.644 108.084 246.148 108.084ZM246.148 109.624C244.627 109.624 243.439 110.682 243.458 112.222C243.439 113.762 244.627 114.819 246.148 114.819C247.688 114.819 248.857 113.762 248.857 112.222C248.857 110.682 247.688 109.624 246.148 109.624ZM262.02 107.917C263.402 107.908 264.581 108.427 265.36 109.29H269.516V106.952H271.279V116.768H269.516V114.522H265.341C264.571 115.376 263.393 115.886 262.02 115.877C259.515 115.896 257.66 114.226 257.66 111.906C257.66 109.568 259.515 107.898 262.02 107.917ZM262.02 109.438C260.462 109.42 259.348 110.422 259.348 111.906C259.348 113.354 260.462 114.393 262.02 114.374C263.542 114.393 264.655 113.354 264.655 111.906C264.655 110.422 263.542 109.42 262.02 109.438ZM265.712 117.139C269.164 117.139 271.335 118.308 271.335 120.349C271.335 122.371 269.164 123.559 265.712 123.54C262.243 123.559 260.072 122.371 260.09 120.349C260.072 118.308 262.243 117.139 265.712 117.139ZM265.712 118.493C263.282 118.493 261.797 119.161 261.816 120.349C261.797 121.499 263.282 122.148 265.712 122.148C268.162 122.148 269.609 121.499 269.609 120.349C269.609 119.161 268.162 118.493 265.712 118.493ZM266.158 110.7C266.278 111.071 266.343 111.479 266.343 111.906C266.343 112.314 266.278 112.713 266.176 113.075H269.516V110.7H266.158ZM280.656 108.808V110.218H275.684V113.187H280.378V114.578H275.684V118.085C277.929 118.076 279.413 117.983 281.176 117.695L281.324 119.143C279.376 119.495 277.762 119.569 275.109 119.569H273.995V108.808H280.656ZM287.67 106.952V123.577H285.982V114.986H283.978V122.761H282.289V107.268H283.978V113.558H285.982V106.952H287.67Z" fill="#275738"/>
<path d="M68.0242 305H62.9754V289.445H68.1746C72.7508 289.445 75.5008 292.367 75.5008 297.201C75.5008 302.057 72.7508 305 68.0242 305ZM65.3387 302.938H67.8953C71.4187 302.938 73.159 300.875 73.159 297.201C73.159 293.549 71.4187 291.508 68.0242 291.508H65.3387V302.938ZM78.1519 305H75.6383L81.2242 289.445H83.9527L89.5602 305H87.0465L85.6285 300.896H79.5699L78.1519 305ZM80.2574 298.92H84.941L82.6422 292.281H82.5348L80.2574 298.92ZM99.3227 293.549C99.1723 292.109 97.9047 291.271 96.1215 291.271C94.2094 291.271 93.0062 292.238 93.0062 293.57C93.0062 295.053 94.6176 295.611 95.8422 295.912L97.3461 296.32C99.3441 296.793 101.815 297.889 101.836 300.703C101.815 303.324 99.7309 305.258 96.057 305.258C92.5766 305.258 90.3852 303.518 90.2348 300.682H92.598C92.7484 302.379 94.2309 303.195 96.057 303.195C98.0336 303.195 99.473 302.186 99.4945 300.66C99.473 299.307 98.2055 298.748 96.5512 298.318L94.7035 297.824C92.2113 297.137 90.643 295.869 90.643 293.699C90.643 291.014 93.0492 289.23 96.1859 289.23C99.3441 289.23 101.557 291.035 101.621 293.549H99.3227ZM103.821 305V289.445H106.185V296.191H113.919V289.445H116.282V305H113.919V298.211H106.185V305H103.821ZM135.627 296.406V297.975H118.01V296.406H135.627ZM133.457 299.328V303.561H122.156V305.15H134.059V306.59H120.115V302.207H131.437V300.789H120.094V299.328H133.457ZM133.414 288.07V292.238H122.285V293.699H133.736V295.139H120.266V290.885H131.373V289.51H120.223V288.07H133.414ZM158.869 297.695V299.307H141.273V297.695H149.05V296.02H143.572V288.092H156.72V289.703H145.634V291.271H156.226V292.797H145.634V294.43H156.849V296.02H151.091V297.695H158.869ZM150.082 300.574C154.314 300.553 156.72 301.67 156.72 303.689C156.72 305.73 154.314 306.805 150.082 306.783C145.806 306.805 143.4 305.73 143.4 303.689C143.4 301.67 145.806 300.553 150.082 300.574ZM150.082 302.1C147.052 302.1 145.42 302.658 145.441 303.689C145.42 304.721 147.052 305.258 150.082 305.236C153.068 305.258 154.679 304.721 154.679 303.689C154.679 302.658 153.068 302.1 150.082 302.1ZM169.297 290.756V292.41H159.737V290.756H163.518V288.135H165.537V290.756H169.297ZM164.528 293.57C166.977 293.57 168.696 295.396 168.717 297.996C168.696 300.617 166.977 302.465 164.528 302.465C162.121 302.465 160.338 300.617 160.36 297.996C160.338 295.396 162.121 293.57 164.528 293.57ZM164.528 295.268C163.131 295.268 162.164 296.406 162.164 297.996C162.164 299.629 163.131 300.725 164.528 300.725C165.903 300.725 166.912 299.629 166.912 297.996C166.912 296.406 165.903 295.268 164.528 295.268ZM176.258 287.576V306.826H174.325V297.266H172.112V305.924H170.178V288.006H172.112V295.59H174.325V287.576H176.258ZM199.135 287.576V306.869H197.094V296.857H193.119V295.203H197.094V287.576H199.135ZM189.896 293.764C189.896 296.814 191.852 299.93 194.816 301.24L193.678 302.809C191.476 301.831 189.778 299.822 188.93 297.395C188.081 299.962 186.395 302.11 184.182 303.131L183.064 301.562C185.986 300.23 187.877 296.943 187.877 293.764V292.496H183.602V290.863H187.898V287.963H189.939V290.863H194.107V292.496H189.896V293.764ZM210.294 287.984C214.526 287.984 217.169 289.359 217.169 291.68C217.169 293.957 214.526 295.311 210.294 295.311C206.083 295.311 203.419 293.957 203.419 291.68C203.419 289.359 206.083 287.984 210.294 287.984ZM210.294 289.596C207.329 289.596 205.503 290.348 205.524 291.68C205.503 292.969 207.329 293.699 210.294 293.721C213.237 293.699 215.063 292.969 215.063 291.68C215.063 290.348 213.237 289.596 210.294 289.596ZM216.932 300.166V306.59H203.634V300.166H216.932ZM205.653 301.799V304.936H214.956V301.799H205.653ZM219.081 296.793V298.447H201.528V296.793H219.081ZM242.43 302.701V304.377H224.813V302.701H232.526V298.125H234.545V302.701H242.43ZM234.588 290.262C234.588 293.312 237.94 296.17 241.657 296.793L240.776 298.469C237.661 297.846 234.792 295.923 233.514 293.27C232.246 295.912 229.411 297.867 226.317 298.469L225.414 296.793C229.11 296.17 232.44 293.312 232.44 290.262V288.801H234.588V290.262ZM259.755 287.576V306.826H257.8V296.836H255.415V305.902H253.503V288.092H255.415V295.182H257.8V287.576H259.755ZM251.591 290.025C251.57 295.096 249.894 299.629 244.394 302.744L243.212 301.326C247.488 298.909 249.292 295.633 249.614 291.701H244.029V290.025H251.591ZM281.686 287.576V292.131H284.479V293.828H281.686V298.812H279.645V287.576H281.686ZM269.311 288.672V291.465H274.36V288.672H276.38V297.695H267.313V288.672H269.311ZM269.311 296.084H274.36V293.076H269.311V296.084ZM281.837 299.822V301.455H271.46V304.936H282.18V306.547H269.419V299.822H281.837ZM302.578 297.631V299.264H285.025V297.631H302.578ZM300.601 304.764V306.418H287.238V300.832H289.3V304.764H300.601ZM293.791 288.221C297.959 288.199 300.666 289.66 300.666 292.066C300.666 294.494 297.959 295.955 293.791 295.977C289.601 295.955 286.916 294.494 286.916 292.066C286.916 289.66 289.601 288.199 293.791 288.221ZM293.791 289.854C290.847 289.854 289 290.691 289.021 292.066C289 293.484 290.847 294.301 293.791 294.301C296.734 294.301 298.56 293.484 298.56 292.066C298.56 290.691 296.734 289.854 293.791 289.854ZM323.435 287.576V291.443H326.228V293.162H323.435V297.223H321.394V287.576H323.435ZM311.232 288.436V294.709C313.821 294.688 316.549 294.483 319.503 293.893L319.761 295.59C316.517 296.234 313.595 296.428 310.759 296.428H309.191V288.436H311.232ZM323.435 298.104V303.002H313.058V304.936H324.101V306.59H311.038V301.434H321.394V299.715H310.995V298.104H323.435Z" fill="#275738"/>
<path d="M168.734 385.576V395.373H166.693V393.525H161.816V391.936H166.693V389.852H162.053C160.86 392.838 157.96 394.804 153.695 395.803L152.986 394.127C157.605 393.106 160.108 390.969 160.441 388.133H153.996V386.457H162.676C162.676 387.08 162.622 387.671 162.525 388.24H166.693V385.576H168.734ZM168.734 396.189V401.066H158.207V403H169.314V404.633H156.188V399.52H166.693V397.801H156.145V396.189H168.734ZM188.702 396.855V398.467H171.149V396.855H178.905V395.459C175.511 395.309 173.577 394.288 173.598 392.537C173.577 390.625 175.897 389.615 179.915 389.615C183.911 389.615 186.231 390.625 186.231 392.537C186.231 394.277 184.308 395.309 180.946 395.459V396.855H188.702ZM186.725 402.785V404.418H173.362V399.605H175.425V402.785H186.725ZM187.714 387.295V388.863H172.052V387.295H178.905V385.383H180.946V387.295H187.714ZM179.915 391.076C177.122 391.076 175.661 391.57 175.661 392.537C175.661 393.504 177.122 393.998 179.915 393.998C182.686 393.998 184.169 393.504 184.169 392.537C184.169 391.57 182.686 391.076 179.915 391.076ZM209.559 385.598V391.785H212.352V393.482H209.559V399.992H207.518V385.598H209.559ZM205.928 387.832V389.486H194.455V387.832H199.182V385.576H201.223V387.832H205.928ZM200.192 390.41C202.963 390.41 204.854 391.85 204.854 394.041C204.854 396.232 202.963 397.65 200.192 397.65C197.399 397.65 195.508 396.232 195.508 394.041C195.508 391.85 197.399 390.41 200.192 390.41ZM200.192 391.979C198.559 391.979 197.463 392.773 197.485 394.041C197.463 395.287 198.559 396.061 200.192 396.061C201.825 396.061 202.92 395.287 202.942 394.041C202.92 392.773 201.825 391.979 200.192 391.979ZM210.375 402.764V404.418H197.356V398.854H199.397V402.764H210.375ZM232.844 385.576V389.443H235.637V391.162H232.844V395.223H230.803V385.576H232.844ZM220.641 386.436V392.709C223.229 392.688 225.958 392.483 228.912 391.893L229.17 393.59C225.926 394.234 223.004 394.428 220.168 394.428H218.6V386.436H220.641ZM232.844 396.104V401.002H222.467V402.936H233.51V404.59H220.447V399.434H230.803V397.715H220.404V396.104H232.844Z" fill="#275738"/>
<path d="M158.928 186.109L161.447 177.76H164.553L163.088 186.109H158.928ZM165.432 186.109L167.951 177.76H171.057L169.592 186.109H165.432ZM195.648 175.035V191.764H192.104V184.674H189.965V190.885H186.479V175.533H189.965V181.627H192.104V175.035H195.648ZM185.688 177.789V180.689H172.592V177.789H177.309V175.27H181.029V177.789H185.688ZM179.184 181.568C182.582 181.568 184.984 183.443 185.014 186.227C184.984 188.98 182.582 190.855 179.184 190.855C175.844 190.855 173.412 188.98 173.412 186.227C173.412 183.443 175.844 181.568 179.184 181.568ZM179.184 184.264C177.719 184.264 176.752 184.996 176.752 186.227C176.752 187.457 177.719 188.219 179.184 188.189C180.648 188.219 181.615 187.457 181.645 186.227C181.615 184.996 180.648 184.264 179.184 184.264ZM186.537 191.998C192.309 191.998 195.766 193.756 195.795 196.861C195.766 199.938 192.309 201.695 186.537 201.695C180.795 201.695 177.309 199.938 177.309 196.861C177.309 193.756 180.795 191.998 186.537 191.998ZM186.537 194.811C182.934 194.811 181.029 195.455 181.059 196.861C181.029 198.209 182.934 198.883 186.537 198.883C190.17 198.883 192.016 198.209 192.016 196.861C192.016 195.455 190.17 194.811 186.537 194.811ZM222.232 188.248V191.266H197.916V188.248H208.17V185.992H201.021V175.68H204.713V178.111H215.406V175.68H219.127V185.992H211.92V188.248H222.232ZM219.273 193.082V201.695H215.553V196.041H200.611V193.082H219.273ZM204.713 183.062H215.406V180.865H204.713V183.062ZM236.072 177.789L233.553 186.139H230.447L231.912 177.789H236.072ZM229.568 177.789L227.049 186.139H223.943L225.408 177.789H229.568Z" fill="white"/>
<path d="M149.248 223.914V226.352H146.224V237.109H143.224V215.828H146.224V223.914H149.248ZM133.052 217.867V229.422C135.783 229.387 138.713 229.129 141.795 228.508L142.099 230.992C138.537 231.719 135.068 231.906 131.927 231.906H130.076V217.867H133.052ZM165.874 226.516C165.874 232.047 162.429 235.234 157.952 235.234C153.429 235.234 150.007 232.023 150.007 226.516C150.007 220.984 153.429 217.797 157.952 217.797C162.429 217.797 165.874 220.984 165.874 226.516ZM162.288 226.516C162.288 222.883 160.577 220.914 157.952 220.914C155.327 220.914 153.593 222.883 153.593 226.516C153.593 230.148 155.327 232.117 157.952 232.117C160.577 232.117 162.288 230.148 162.288 226.516ZM183.345 226.516C183.345 232.047 179.899 235.234 175.423 235.234C170.899 235.234 167.477 232.023 167.477 226.516C167.477 220.984 170.899 217.797 175.423 217.797C179.899 217.797 183.345 220.984 183.345 226.516ZM179.759 226.516C179.759 222.883 178.048 220.914 175.423 220.914C172.798 220.914 171.063 222.883 171.063 226.516C171.063 230.148 172.798 232.117 175.423 232.117C178.048 232.117 179.759 230.148 179.759 226.516ZM192.316 229.047C190.746 227.477 189.902 225.531 189.879 223.375C189.902 220.234 192.246 217.727 195.293 217.727C197.027 217.727 198.504 218.523 199.488 219.766C200.496 218.523 201.996 217.727 203.73 217.727C206.754 217.727 209.121 220.234 209.121 223.375C209.121 225.531 208.277 227.477 206.684 229.047L199.488 236.242L192.316 229.047ZM233.046 215.828V237.203H230.023V215.828H233.046ZM221.468 217.328C224.679 217.328 227.07 220.281 227.07 224.922C227.07 229.609 224.679 232.539 221.468 232.539C218.187 232.539 215.796 229.609 215.82 224.922C215.796 220.281 218.187 217.328 221.468 217.328ZM221.468 220.023C219.804 220.023 218.702 221.758 218.702 224.922C218.702 228.109 219.804 229.82 221.468 229.82C223.085 229.82 224.187 228.109 224.187 224.922C224.187 221.758 223.085 220.023 221.468 220.023ZM251.665 226.516C251.665 232.047 248.22 235.234 243.743 235.234C239.22 235.234 235.798 232.023 235.798 226.516C235.798 220.984 239.22 217.797 243.743 217.797C248.22 217.797 251.665 220.984 251.665 226.516ZM248.079 226.516C248.079 222.883 246.368 220.914 243.743 220.914C241.118 220.914 239.384 222.883 239.384 226.516C239.384 230.148 241.118 232.117 243.743 232.117C246.368 232.117 248.079 230.148 248.079 226.516ZM269.135 226.516C269.135 232.047 265.69 235.234 261.213 235.234C256.69 235.234 253.268 232.023 253.268 226.516C253.268 220.984 256.69 217.797 261.213 217.797C265.69 217.797 269.135 220.984 269.135 226.516ZM265.549 226.516C265.549 222.883 263.838 220.914 261.213 220.914C258.588 220.914 256.854 222.883 256.854 226.516C256.854 230.148 258.588 232.117 261.213 232.117C263.838 232.117 265.549 230.148 265.549 226.516Z" fill="white"/>
<path d="M133.788 345L133.765 342.445L139.859 336.844C141.452 335.32 142.296 334.383 142.296 333.047C142.296 331.547 141.148 330.609 139.601 330.609C138.007 330.609 136.976 331.617 136.976 333.234H133.624C133.601 329.906 136.062 327.797 139.648 327.797C143.28 327.797 145.695 329.859 145.695 332.812C145.695 334.734 144.757 336.328 141.265 339.492L138.687 342V342.094H145.929V345H133.788ZM154.423 345.234C150.18 345.234 147.602 342.07 147.602 336.516C147.602 330.961 150.18 327.797 154.423 327.797C158.665 327.797 161.243 330.984 161.243 336.516C161.243 342.094 158.665 345.234 154.423 345.234ZM154.423 342.328C156.391 342.328 157.657 340.43 157.634 336.516C157.634 332.648 156.391 330.68 154.423 330.68C152.454 330.68 151.212 332.648 151.212 336.516C151.188 340.43 152.454 342.328 154.423 342.328ZM163.08 345L163.057 342.445L169.151 336.844C170.745 335.32 171.588 334.383 171.588 333.047C171.588 331.547 170.44 330.609 168.893 330.609C167.299 330.609 166.268 331.617 166.268 333.234H162.916C162.893 329.906 165.354 327.797 168.94 327.797C172.573 327.797 174.987 329.859 174.987 332.812C174.987 334.734 174.049 336.328 170.557 339.492L167.979 342V342.094H175.221V345H163.08ZM177.129 345L177.105 342.445L183.199 336.844C184.793 335.32 185.637 334.383 185.637 333.047C185.637 331.547 184.488 330.609 182.941 330.609C181.348 330.609 180.316 331.617 180.316 333.234H176.965C176.941 329.906 179.402 327.797 182.988 327.797C186.621 327.797 189.035 329.859 189.035 332.812C189.035 334.734 188.098 336.328 184.605 339.492L182.027 342V342.094H189.27V345H177.129ZM193.24 345.211C192.138 345.211 191.248 344.32 191.271 343.242C191.248 342.164 192.138 341.297 193.24 341.297C194.271 341.297 195.185 342.164 195.185 343.242C195.185 344.32 194.271 345.211 193.24 345.211ZM208.821 328.031V345H205.282V331.383H205.188L201.298 333.82V330.703L205.493 328.031H208.821ZM218.745 345.234C214.502 345.234 211.924 342.07 211.924 336.516C211.924 330.961 214.502 327.797 218.745 327.797C222.987 327.797 225.565 330.984 225.565 336.516C225.565 342.094 222.987 345.234 218.745 345.234ZM218.745 342.328C220.713 342.328 221.979 340.43 221.955 336.516C221.955 332.648 220.713 330.68 218.745 330.68C216.776 330.68 215.534 332.648 215.534 336.516C215.51 340.43 216.776 342.328 218.745 342.328ZM228.762 345.211C227.66 345.211 226.77 344.32 226.793 343.242C226.77 342.164 227.66 341.297 228.762 341.297C229.793 341.297 230.707 342.164 230.707 343.242C230.707 344.32 229.793 345.211 228.762 345.211ZM237.03 345L237.007 342.445L243.101 336.844C244.695 335.32 245.538 334.383 245.538 333.047C245.538 331.547 244.39 330.609 242.843 330.609C241.249 330.609 240.218 331.617 240.218 333.234H236.866C236.843 329.906 239.304 327.797 242.89 327.797C246.523 327.797 248.937 329.859 248.937 332.812C248.937 334.734 247.999 336.328 244.507 339.492L241.929 342V342.094H249.171V345H237.03ZM251.735 345L258.884 331.031V330.914H250.563V328.031H262.54V330.961L255.391 345H251.735Z" fill="white"/>
<path d="M135.309 443L135.285 440.445L141.379 434.844C142.973 433.32 143.816 432.383 143.816 431.047C143.816 429.547 142.668 428.609 141.121 428.609C139.527 428.609 138.496 429.617 138.496 431.234H135.145C135.121 427.906 137.582 425.797 141.168 425.797C144.801 425.797 147.215 427.859 147.215 430.812C147.215 432.734 146.277 434.328 142.785 437.492L140.207 440V440.094H147.449V443H135.309ZM155.943 443.234C151.701 443.234 149.123 440.07 149.123 434.516C149.123 428.961 151.701 425.797 155.943 425.797C160.185 425.797 162.763 428.984 162.763 434.516C162.763 440.094 160.185 443.234 155.943 443.234ZM155.943 440.328C157.912 440.328 159.177 438.43 159.154 434.516C159.154 430.648 157.912 428.68 155.943 428.68C153.974 428.68 152.732 430.648 152.732 434.516C152.709 438.43 153.974 440.328 155.943 440.328ZM164.601 443L164.577 440.445L170.671 434.844C172.265 433.32 173.109 432.383 173.109 431.047C173.109 429.547 171.96 428.609 170.413 428.609C168.82 428.609 167.788 429.617 167.788 431.234H164.437C164.413 427.906 166.874 425.797 170.46 425.797C174.093 425.797 176.507 427.859 176.507 430.812C176.507 432.734 175.57 434.328 172.077 437.492L169.499 440V440.094H176.741V443H164.601ZM184.93 443.234C181.204 443.234 178.532 441.172 178.462 438.219H182.024C182.095 439.484 183.313 440.328 184.954 440.328C186.641 440.328 187.86 439.367 187.837 438.008C187.86 436.625 186.618 435.641 184.626 435.641H183.055V433.039H184.626C186.29 433.039 187.462 432.125 187.462 430.789C187.462 429.5 186.477 428.609 184.977 428.609C183.477 428.609 182.235 429.453 182.188 430.742H178.813C178.86 427.812 181.509 425.797 184.977 425.797C188.516 425.797 190.884 427.883 190.86 430.578C190.884 432.477 189.548 433.836 187.649 434.164V434.305C190.134 434.609 191.516 436.133 191.493 438.242C191.516 441.148 188.751 443.234 184.93 443.234ZM194.948 443.211C193.846 443.211 192.955 442.32 192.979 441.242C192.955 440.164 193.846 439.297 194.948 439.297C195.979 439.297 196.893 440.164 196.893 441.242C196.893 442.32 195.979 443.211 194.948 443.211ZM209.404 425.797C212.92 425.82 216.248 427.906 216.248 434.07C216.271 439.836 213.529 443.234 209.263 443.234C205.841 443.234 203.521 441.102 203.17 438.219H206.638C206.92 439.461 207.904 440.211 209.263 440.211C211.584 440.211 212.802 438.148 212.802 434.75H212.662C211.865 436.25 210.201 437.141 208.302 437.141C205.255 437.141 203.005 434.844 202.982 431.68C202.982 428.258 205.56 425.773 209.404 425.797ZM209.427 428.562C207.693 428.562 206.404 429.898 206.427 431.586C206.427 433.25 207.67 434.562 209.404 434.562C211.115 434.562 212.451 433.203 212.451 431.562C212.427 429.945 211.162 428.562 209.427 428.562ZM219.398 443.211C218.296 443.211 217.405 442.32 217.429 441.242C217.405 440.164 218.296 439.297 219.398 439.297C220.429 439.297 221.343 440.164 221.343 441.242C221.343 442.32 220.429 443.211 219.398 443.211ZM227.666 443L227.643 440.445L233.737 434.844C235.33 433.32 236.174 432.383 236.174 431.047C236.174 429.547 235.026 428.609 233.479 428.609C231.885 428.609 230.854 429.617 230.854 431.234H227.502C227.479 427.906 229.94 425.797 233.526 425.797C237.159 425.797 239.573 427.859 239.573 430.812C239.573 432.734 238.635 434.328 235.143 437.492L232.565 440V440.094H239.807V443H227.666ZM241.715 443L241.691 440.445L247.785 434.844C249.379 433.32 250.223 432.383 250.223 431.047C250.223 429.547 249.074 428.609 247.527 428.609C245.934 428.609 244.902 429.617 244.902 431.234H241.551C241.527 427.906 243.988 425.797 247.574 425.797C251.207 425.797 253.621 427.859 253.621 430.812C253.621 432.734 252.684 434.328 249.191 437.492L246.613 440V440.094H253.855V443H241.715Z" fill="white"/>
</svg>
