<svg width="1000" height="500" viewBox="0 0 1000 500" fill="none" xmlns="http://www.w3.org/2000/svg">
<rect width="1000" height="500" fill="#FBFBFB"/>
<path d="M129.398 91.5273C128.695 82.2109 121.84 76.7617 109.535 76.7617C97.4062 76.7617 91.2539 82.0352 91.0781 89.2422C90.9023 97.1523 98.6367 101.02 110.062 103.48L121.137 106.117C145.57 111.566 159.809 123.695 159.984 144.086C159.809 168.168 141.176 182.758 109.535 182.758C77.8945 182.758 57.3281 168.344 56.8008 139.164H85.6289C86.332 151.469 95.4727 157.797 109.184 157.797C121.84 157.797 129.398 152.172 129.574 144.086C129.398 136.703 122.895 132.836 108.832 129.672L95.4727 126.508C73.5 121.41 60.1406 110.512 60.1406 91.3516C59.9648 67.7969 80.8828 51.9766 109.711 51.9766C139.066 51.9766 157.875 67.9727 158.227 91.5273H129.398Z" fill="#A0C2AC"/>
<path d="M166.186 202.914V122.67H184.125V132.66H184.77C186.918 127.396 191.967 121.918 201.205 121.918C213.559 121.918 224.516 131.371 224.516 151.889C224.516 171.654 214.096 181.859 201.205 181.859C192.182 181.859 187.026 176.811 184.77 171.547H184.34V202.914H166.186ZM183.911 151.781C183.911 161.449 187.993 167.68 194.975 167.68C202.065 167.68 205.932 161.449 205.932 151.781C205.932 142.328 202.065 136.098 194.975 136.098C187.993 136.098 183.911 142.113 183.911 151.781ZM257.954 182.074C239.693 182.074 228.521 170.688 228.521 152.104C228.521 134.057 239.8 121.918 257.31 121.918C273.638 121.918 285.454 132.338 285.454 151.674V156.293H246.353V156.615C246.353 164.135 250.972 168.969 258.277 168.969C263.218 168.969 266.87 166.82 268.374 163.383H285.239C283.091 174.77 273.101 182.074 257.954 182.074ZM246.353 145.658H268.589C268.482 139.428 263.97 135.023 257.739 135.023C251.294 135.023 246.621 139.589 246.353 145.658ZM318.57 182.074C300.201 182.074 289.244 169.828 289.244 151.996C289.244 134.164 300.309 121.918 318.57 121.918C334.576 121.918 344.996 131.156 345.426 145.336H328.561C327.701 139.428 324.264 135.668 318.785 135.668C312.125 135.668 307.721 141.361 307.721 151.781C307.721 162.309 312.018 168.002 318.785 168.002C323.941 168.002 327.809 164.672 328.561 158.441H345.426C344.889 172.621 334.791 182.074 318.57 182.074ZM351.471 181V122.67H369.626V181H351.471ZM360.602 115.688C355.446 115.688 351.257 111.82 351.257 106.986C351.257 102.152 355.446 98.2852 360.602 98.2852C365.759 98.2852 370.055 102.152 370.055 106.986C370.055 111.82 365.759 115.688 360.602 115.688ZM375.242 164.779C375.242 151.889 385.232 147.27 396.834 146.518C401.023 146.249 408.328 145.98 410.798 145.873V141.146C410.798 137.064 407.791 134.809 402.849 134.809C398.015 134.809 395.007 136.85 394.255 140.717H377.39C378.142 130.404 386.951 121.918 403.279 121.918C417.673 121.918 428.953 128.793 428.953 141.361V181H411.873V172.836H411.443C408.22 178.744 402.634 182.074 394.47 182.074C383.298 182.074 375.242 176.381 375.242 164.779ZM392.429 164.027C392.429 168.002 395.545 170.043 399.949 170.043C406.072 170.043 411.013 166.068 410.906 160.268V156.508C408.704 156.615 402.527 156.884 399.841 157.152C395.33 157.689 392.429 160.16 392.429 164.027ZM454.871 103.227V181H436.717V103.227H454.871Z" fill="#323232"/>
<path d="M69.6646 268.728C68.1509 268.728 66.9058 267.482 66.9058 265.944C66.9058 264.431 68.1509 263.186 69.6646 263.186C71.2026 263.186 72.4478 264.431 72.4478 265.944C72.4478 267.482 71.2026 268.728 69.6646 268.728ZM107.958 253.225V269.484H105.761V261.55H103.075V268.898H100.902V253.615H103.075V259.646H105.761V253.225H107.958ZM108.593 272.731V274.611H93.4561V267.971H95.751V272.731H108.593ZM98.5342 255.056V261.477H92.5283V264.431C95.2383 264.431 97.3013 264.284 99.7061 263.82L99.9502 265.676C97.1914 266.188 94.9209 266.286 91.7227 266.286H90.2822V259.719H96.3125V256.911H90.2334V255.056H98.5342ZM121.118 254.567V256.447H113.403V262.99C117.285 262.978 119.604 262.868 122.266 262.331L122.485 264.211C119.604 264.772 117.114 264.919 112.769 264.919H111.108V254.567H121.118ZM128.149 253.2V265.847H125.83V260.329H119.897V258.425H125.83V253.2H128.149ZM128.149 266.896V274.782H113.721V266.896H128.149ZM116.016 268.728V272.902H125.879V268.728H116.016ZM149.342 253.2V275.075H147.12V263.674H144.41V274.001H142.213V253.615H144.41V261.77H147.12V253.2H149.342ZM139.747 255.666V269.313H131.251V255.666H139.747ZM133.448 257.497V267.458H137.574V257.497H133.448ZM159.255 257.741C159.255 260.354 161.403 262.795 164.797 263.723L163.698 265.529C161.135 264.821 159.182 263.234 158.156 261.159C157.18 263.442 155.251 265.236 152.614 266.066L151.467 264.235C154.836 263.21 156.936 260.573 156.936 257.741V257.619H152.077V255.764H156.936V253.2H159.279V255.764H164.089V257.619H159.255V257.741ZM169.265 253.225V266.555H166.945V253.225H169.265ZM161.916 266.97C166.506 266.97 169.338 268.459 169.338 270.998C169.338 273.562 166.506 275.051 161.916 275.026C157.302 275.051 154.47 273.562 154.47 270.998C154.47 268.459 157.302 266.97 161.916 266.97ZM161.916 268.801C158.669 268.801 156.813 269.606 156.813 270.998C156.813 272.438 158.669 273.244 161.916 273.244C165.163 273.244 167.043 272.438 167.043 270.998C167.043 269.606 165.163 268.801 161.916 268.801ZM178.153 266.262C178.178 261.672 179.472 257.839 181.767 254.567H184.159C182.475 256.984 180.863 261.916 180.863 266.262C180.863 270.632 182.475 275.539 184.159 277.98H181.767C179.472 274.709 178.178 270.876 178.153 266.262ZM194.731 253.518C199.565 253.518 202.544 254.958 202.544 257.57C202.544 259.938 200.017 261.367 195.83 261.574V263.405H204.717V265.285H184.771V263.405H193.584V261.574C189.446 261.354 186.919 259.926 186.919 257.57C186.919 254.958 189.922 253.518 194.731 253.518ZM194.731 255.275C191.338 255.251 189.287 256.105 189.312 257.57C189.287 258.986 191.338 259.816 194.731 259.816C198.125 259.816 200.151 258.986 200.151 257.57C200.151 256.105 198.125 255.251 194.731 255.275ZM189.531 266.481V268.679H199.883V266.481H202.202V274.807H187.236V266.481H189.531ZM189.531 272.927H199.883V270.485H189.531V272.927ZM213.092 257.155C213.092 260.305 215.069 263.308 218.316 264.577L217.047 266.384C214.654 265.419 212.896 263.503 211.969 261.11C211.029 263.674 209.161 265.7 206.622 266.726L205.377 264.87C208.746 263.625 210.772 260.5 210.797 257.155V254.445H213.092V257.155ZM223.614 253.225V269.509H221.295V262.624H217.047V260.744H221.295V258.205H217.047V256.325H221.295V253.225H223.614ZM224.103 272.731V274.611H209.332V267.873H211.676V272.731H224.103ZM238.802 257.204C238.802 260.158 240.779 263.039 244.075 264.187L242.806 265.993C240.413 265.078 238.631 263.271 237.703 260.988C236.751 263.527 234.883 265.529 232.308 266.506L231.062 264.675C234.456 263.454 236.482 260.427 236.507 257.131V254.543H238.802V257.204ZM249.324 253.225V269.533H247.005V260.109H242.391V258.205H247.005V253.225H249.324ZM249.812 272.731V274.611H235.042V267.702H237.386V272.731H249.812ZM261.142 254.763V256.643H254.818V259.084H260.897V260.866H254.818V263.527C257.748 263.503 259.677 263.393 261.923 262.966L262.143 264.87C259.579 265.358 257.504 265.456 254.013 265.432H252.597V254.763H261.142ZM270.346 253.225V266.506H268.148V260.671H265.463V266.335H263.29V253.615H265.463V258.791H268.148V253.225H270.346ZM270.346 267.556V275.075H268.051V269.436H255.478V267.556H270.346ZM294.444 253.2V261.916H297.838V263.845H294.444V275.051H292.125V253.2H294.444ZM288.731 255.495C288.707 261.818 285.924 267.458 278.722 271.022L277.428 269.216C282.909 266.481 285.887 262.526 286.363 257.424H278.526V255.495H288.731ZM315.686 259.108V260.988H300.671V253.591H302.966V259.108H315.686ZM317.98 263.308V265.212H298.01V263.308H317.98ZM307.971 266.994C312.683 266.994 315.515 268.435 315.515 270.974C315.515 273.537 312.683 274.978 307.971 274.978C303.234 274.978 300.378 273.537 300.378 270.974C300.378 268.435 303.234 266.994 307.971 266.994ZM307.971 268.801C304.626 268.825 302.722 269.558 302.722 270.974C302.722 272.365 304.626 273.195 307.971 273.195C311.267 273.195 313.195 272.365 313.195 270.974C313.195 269.558 311.267 268.825 307.971 268.801ZM324.622 266.262C324.598 270.876 323.304 274.709 321.009 277.98H318.616C320.301 275.539 321.912 270.632 321.912 266.262C321.912 261.916 320.301 256.984 318.616 254.567H321.009C323.304 257.839 324.598 261.672 324.622 266.262ZM69.6646 308.728C68.1509 308.728 66.9058 307.482 66.9058 305.944C66.9058 304.431 68.1509 303.186 69.6646 303.186C71.2026 303.186 72.4478 304.431 72.4478 305.944C72.4478 307.482 71.2026 308.728 69.6646 308.728ZM109.325 310.388V312.341H89.3057V310.388H109.325ZM107.494 295.3V297.204H104.149V304.504H107.421V306.359H91.0635V304.504H94.335V297.204H91.0146V295.3H107.494ZM96.6299 304.504H101.879V297.204H96.6299V304.504ZM129.932 310.51V312.463H109.912V310.51H118.726V306.677H112.354V299.719H125.195V296.643H112.305V294.738H127.49V301.574H114.648V304.772H128.003V306.677H121.021V310.51H129.932ZM148.707 293.2V304.504H146.363V293.2H148.707ZM148.707 305.505V310.925H136.524V313H149.464V314.855H134.254V309.24H146.412V307.336H134.181V305.505H148.707ZM143.36 294.641V296.472H141.261V301.647C142.323 301.574 143.373 301.477 144.361 301.354L144.459 303.039C140.089 303.698 134.986 303.845 131.153 303.845L130.885 301.989C131.715 301.989 132.618 301.977 133.546 301.965V296.472H131.471V294.641H143.36ZM135.768 301.916C136.842 301.879 137.94 301.843 139.039 301.77V296.472H135.768V301.916ZM174.588 306.872V308.752H162.405V312.927H174.905V314.807H160.086V306.872H174.588ZM174.466 293.2V305.7H172.146V300.5H167.898C167.459 303.063 165.201 304.846 162.283 304.846C158.987 304.846 156.546 302.648 156.546 299.621C156.546 296.545 158.987 294.348 162.283 294.372C165.152 294.348 167.386 296.069 167.874 298.596H172.146V293.2H174.466ZM162.283 296.325C160.232 296.301 158.768 297.644 158.768 299.621C158.768 301.525 160.232 302.868 162.283 302.868C164.261 302.868 165.75 301.525 165.75 299.621C165.75 297.644 164.261 296.301 162.283 296.325ZM182.768 294.836C185.734 294.836 187.907 297.351 188.261 301.403H192.777V293.2H195.072V315.124H192.777V303.283H188.285C188.029 307.543 185.807 310.192 182.768 310.192C179.496 310.192 177.201 307.214 177.226 302.502C177.201 297.814 179.496 294.836 182.768 294.836ZM182.768 296.911C180.79 296.911 179.423 299.06 179.423 302.502C179.423 305.969 180.79 308.117 182.768 308.117C184.745 308.117 186.112 305.969 186.112 302.502C186.112 299.06 184.745 296.911 182.768 296.911ZM217.461 310.437V312.365H197.441V310.437H206.255V305.944H199.736V294.689H202.056V298.449H212.798V294.689H215.093V305.944H208.55V310.437H217.461ZM202.056 304.064H212.798V300.329H202.056V304.064ZM236.236 293.2V315.075H233.893V293.2H236.236ZM229.718 295.544C229.718 301.94 226.983 307.507 219.488 311.096L218.268 309.216C224.09 306.445 226.922 302.502 227.374 297.399H219.317V295.544H229.718ZM69.6646 348.728C68.1509 348.728 66.9058 347.482 66.9058 345.944C66.9058 344.431 68.1509 343.186 69.6646 343.186C71.2026 343.186 72.4478 344.431 72.4478 345.944C72.4478 347.482 71.2026 348.728 69.6646 348.728ZM96.8496 336.691C96.8496 339.572 98.8516 342.233 102.123 343.308L100.878 345.139C98.4854 344.296 96.6909 342.587 95.751 340.427C94.7866 342.88 92.9312 344.797 90.3799 345.749L89.1348 343.894C92.5527 342.673 94.5303 339.768 94.5547 336.496V334.348H96.8496V336.691ZM106.493 333.2V338.693H109.667V340.646H106.493V346.408H104.174V333.2H106.493ZM99.4375 346.921C103.93 346.921 106.688 348.41 106.688 350.974C106.688 353.562 103.93 355.051 99.4375 355.026C94.8965 355.051 92.0889 353.562 92.0889 350.974C92.0889 348.41 94.8965 346.921 99.4375 346.921ZM99.4375 348.752C96.2637 348.752 94.3838 349.582 94.4082 350.974C94.3838 352.414 96.2637 353.195 99.4375 353.22C102.587 353.195 104.418 352.414 104.418 350.974C104.418 349.582 102.587 348.752 99.4375 348.752ZM128.687 333.2V355.075H126.465V343.771H123.633V353.952H121.509V333.64H123.633V341.867H126.465V333.2H128.687ZM118.848 335.837V337.717H112.964V347.849C115.649 347.824 117.676 347.702 120.02 347.263L120.19 349.167C117.554 349.704 115.308 349.802 112.109 349.826H110.645V335.837H118.848ZM140.65 346.823C145.167 346.823 147.901 348.337 147.901 350.925C147.901 353.537 145.167 355.051 140.65 355.075C136.085 355.051 133.302 353.537 133.302 350.925C133.302 348.337 136.085 346.823 140.65 346.823ZM140.65 348.654C137.477 348.654 135.597 349.46 135.621 350.925C135.597 352.39 137.477 353.22 140.65 353.22C143.8 353.22 145.631 352.39 145.631 350.925C145.631 349.46 143.8 348.654 140.65 348.654ZM147.706 333.2V338.547H150.88V340.524H147.706V346.262H145.387V333.2H147.706ZM133.644 334.567V337.717H139.381V334.567H141.676V344.724H131.373V334.567H133.644ZM133.644 342.868H139.381V339.548H133.644V342.868ZM163.308 335.544V336.887C163.308 338.718 163.308 341.55 162.673 345.456L160.378 345.285C160.927 341.782 160.988 339.255 161.013 337.424H152.126V335.544H163.308ZM157.692 341.794V348.337C160.024 348.264 162.392 348.105 164.577 347.824L164.699 349.558C160.134 350.29 155.056 350.388 151.174 350.363L150.905 348.483C152.272 348.471 153.798 348.459 155.397 348.41V341.794H157.692ZM168.166 333.2V342.233H171.511V344.211H168.166V355.075H165.822V333.2H168.166ZM183.378 339.89C183.378 343.283 184.965 346.823 188.017 348.41L186.698 350.144C184.586 349.021 183.109 346.933 182.328 344.455C181.535 347.092 180.07 349.375 177.958 350.607L176.591 348.898C179.594 347.141 181.181 343.405 181.205 339.89V339.084H177.152V337.155H181.205V333.981H183.378V337.155H187.357V339.084H183.378V339.89ZM195.731 333.2V355.075H193.51V343.845H190.897V354.001H188.7V333.615H190.897V341.892H193.51V333.2H195.731ZM209.209 334.787V336.643H201.03V339.06H208.599V340.891H201.03V343.381C205.413 343.405 207.964 343.332 210.918 342.819L211.162 344.699C207.988 345.212 205.278 345.285 200.493 345.285H198.687V334.787H209.209ZM215.581 333.225V346.677H213.262V333.225H215.581ZM208.257 346.97C212.847 346.97 215.703 348.459 215.703 350.998C215.703 353.562 212.847 355.051 208.257 355.026C203.618 355.051 200.811 353.562 200.811 350.998C200.811 348.459 203.618 346.97 208.257 346.97ZM208.257 348.801C204.985 348.801 203.13 349.606 203.13 350.998C203.13 352.438 204.985 353.244 208.257 353.244C211.455 353.244 213.384 352.438 213.384 350.998C213.384 349.606 211.455 348.801 208.257 348.801ZM240.192 333.2V341.916H243.586V343.845H240.192V355.051H237.873V333.2H240.192ZM234.479 335.495C234.455 341.818 231.672 347.458 224.47 351.022L223.176 349.216C228.657 346.481 231.635 342.526 232.111 337.424H224.274V335.495H234.479ZM261.434 339.108V340.988H246.419V333.591H248.714V339.108H261.434ZM263.729 343.308V345.212H243.758V343.308H263.729ZM253.719 346.994C258.431 346.994 261.263 348.435 261.263 350.974C261.263 353.537 258.431 354.978 253.719 354.978C248.982 354.978 246.126 353.537 246.126 350.974C246.126 348.435 248.982 346.994 253.719 346.994ZM253.719 348.801C250.374 348.825 248.47 349.558 248.47 350.974C248.47 352.365 250.374 353.195 253.719 353.195C257.015 353.195 258.943 352.365 258.943 350.974C258.943 349.558 257.015 348.825 253.719 348.801ZM69.6646 388.728C68.1509 388.728 66.9058 387.482 66.9058 385.944C66.9058 384.431 68.1509 383.186 69.6646 383.186C71.2026 383.186 72.4478 384.431 72.4478 385.944C72.4478 387.482 71.2026 388.728 69.6646 388.728ZM100.463 375.422C100.438 381.867 98.3389 387.604 90.5752 391.56L89.2812 389.802C93.1143 387.836 95.4824 385.48 96.8008 382.697L89.7207 383.381L89.3545 381.379L97.5332 380.866C97.8628 379.743 98.0703 378.547 98.168 377.302H90.4775V375.422H100.463ZM107.519 373.2V395.075H105.224V383.771H100.414V381.867H105.224V373.2H107.519ZM127.979 373.859V375.617H124.805V379.401H127.881V381.184H111.841V379.401H114.941V375.617H111.743V373.859H127.979ZM129.858 382.795V384.626H109.912V382.795H129.858ZM127.344 386.335V391.34H114.6V393.098H127.954V394.855H112.329V389.704H125.049V388.068H112.305V386.335H127.344ZM117.236 379.401H122.485V375.617H117.236V379.401ZM149.342 373.2V395.075H147.12V383.674H144.41V394.001H142.213V373.615H144.41V381.77H147.12V373.2H149.342ZM139.747 375.666V389.313H131.251V375.666H139.747ZM133.448 377.497V387.458H137.574V377.497H133.448ZM169.289 373.2V395.075H166.97V373.2H169.289ZM154.763 375.324V387.507C157.949 387.482 161.306 387.226 164.821 386.506L165.139 388.459C161.257 389.24 157.741 389.509 154.299 389.509H152.468V375.324H154.763ZM189.993 373.2V395.124H187.674V382.966H183.157V381.062H187.674V373.2H189.993ZM179.544 379.353C179.544 383.063 181.863 387.043 185.232 388.532L183.841 390.388C181.314 389.167 179.361 386.616 178.396 383.625C177.42 386.811 175.43 389.533 172.903 390.827L171.487 389.021C174.832 387.434 177.176 383.283 177.2 379.353V377.302H172.366V375.397H184.402V377.302H179.544V379.353ZM217.461 390.388V392.292H197.441V390.388H206.206V385.188H208.501V390.388H217.461ZM208.55 376.252C208.55 379.719 212.358 382.966 216.582 383.674L215.581 385.578C212.041 384.87 208.782 382.685 207.329 379.67C205.889 382.673 202.666 384.895 199.15 385.578L198.125 383.674C202.324 382.966 206.108 379.719 206.108 376.252V374.592H208.55V376.252ZM236.773 373.2V395.075H234.552V383.723H231.842V394.025H229.669V373.786H231.842V381.843H234.552V373.2H236.773ZM227.496 375.983C227.472 381.745 225.567 386.896 219.317 390.437L217.975 388.825C222.833 386.079 224.884 382.355 225.25 377.888H218.902V375.983H227.496ZM250.422 374.787V376.643H242.243V379.06H249.812V380.891H242.243V383.381C246.625 383.405 249.177 383.332 252.131 382.819L252.375 384.699C249.201 385.212 246.491 385.285 241.706 385.285H239.899V374.787H250.422ZM256.794 373.225V386.677H254.475V373.225H256.794ZM249.47 386.97C254.06 386.97 256.916 388.459 256.916 390.998C256.916 393.562 254.06 395.051 249.47 395.026C244.831 395.051 242.023 393.562 242.023 390.998C242.023 388.459 244.831 386.97 249.47 386.97ZM249.47 388.801C246.198 388.801 244.343 389.606 244.343 390.998C244.343 392.438 246.198 393.244 249.47 393.244C252.668 393.244 254.597 392.438 254.597 390.998C254.597 389.606 252.668 388.801 249.47 388.801ZM283.188 373.2V395.075H280.966V383.674H278.256V394.001H276.059V373.615H278.256V381.77H280.966V373.2H283.188ZM273.593 375.666V389.313H265.097V375.666H273.593ZM267.294 377.497V387.458H271.42V377.497H267.294ZM293.101 377.741C293.101 380.354 295.249 382.795 298.643 383.723L297.544 385.529C294.98 384.821 293.027 383.234 292.002 381.159C291.025 383.442 289.097 385.236 286.46 386.066L285.312 384.235C288.682 383.21 290.781 380.573 290.781 377.741V377.619H285.923V375.764H290.781V373.2H293.125V375.764H297.935V377.619H293.101V377.741ZM303.11 373.225V386.555H300.791V373.225H303.11ZM295.762 386.97C300.352 386.97 303.184 388.459 303.184 390.998C303.184 393.562 300.352 395.051 295.762 395.026C291.147 395.051 288.315 393.562 288.315 390.998C288.315 388.459 291.147 386.97 295.762 386.97ZM295.762 388.801C292.515 388.801 290.659 389.606 290.659 390.998C290.659 392.438 292.515 393.244 295.762 393.244C299.009 393.244 300.889 392.438 300.889 390.998C300.889 389.606 299.009 388.801 295.762 388.801ZM330.676 385.749V387.629H321.74V395.051H319.47V387.629H310.656V385.749H330.676ZM328.161 374.372V382.966H313.171V374.372H328.161ZM315.441 376.228V381.159H325.842V376.228H315.441ZM350.062 373.2V395.075H347.84V373.2H350.062ZM345.618 373.664V393.977H343.421V382.844H340.027V380.939H343.421V373.664H345.618ZM337.879 379.304C337.879 383.039 339.393 386.774 342.469 388.557L341.077 390.266C338.99 389.021 337.549 386.811 336.805 384.162C336.011 387.019 334.522 389.448 332.386 390.778L330.97 389.045C334.07 387.165 335.657 383.186 335.657 379.304V377.546H331.629V375.666H341.639V377.546H337.879V379.304ZM369.081 373.225V380.256H372.255V382.185H369.081V389.582H366.762V373.225H369.081ZM364.955 375.764V377.644H351.918V375.764H357.289V373.2H359.608V375.764H364.955ZM358.437 378.693C361.586 378.693 363.734 380.329 363.734 382.819C363.734 385.31 361.586 386.921 358.437 386.921C355.263 386.921 353.114 385.31 353.114 382.819C353.114 380.329 355.263 378.693 358.437 378.693ZM358.437 380.476C356.581 380.476 355.336 381.379 355.36 382.819C355.336 384.235 356.581 385.114 358.437 385.114C360.292 385.114 361.537 384.235 361.562 382.819C361.537 381.379 360.292 380.476 358.437 380.476ZM370.009 392.731V394.611H355.214V388.288H357.533V392.731H370.009Z" fill="#323232"/>
</svg>
