<svg width="455" height="455" viewBox="0 0 455 455" fill="none" xmlns="http://www.w3.org/2000/svg">
<path d="M450.841 430.579L312.683 291.576C338.433 260.736 353.953 221.058 353.953 177.734C353.953 79.5747 274.378 -0.000488281 176.219 -0.000488281C78.0596 -0.000488281 -1.51562 79.5747 -1.51562 177.734C-1.51562 275.893 78.0596 355.468 176.219 355.468C220.816 355.468 261.553 339.003 292.763 311.859L430.727 450.691C436.28 456.244 445.288 456.244 450.84 450.691C456.385 445.139 456.385 436.138 450.84 430.579H450.841ZM176.219 327.265C93.6362 327.265 26.6873 260.316 26.6873 177.734C26.6873 95.1514 93.6362 28.2024 176.219 28.2024C258.801 28.2024 325.75 95.1514 325.75 177.734C325.75 260.316 258.801 327.265 176.219 327.265Z" fill="#929296"/>
</svg>
