<svg width="500" height="70" viewBox="0 0 500 70" fill="none" xmlns="http://www.w3.org/2000/svg">
<rect width="500" height="70" fill="white"/>
<mask id="mask0_4_2" style="mask-type:alpha" maskUnits="userSpaceOnUse" x="27" y="16" width="32" height="38">
<rect x="27" y="16" width="32" height="38" fill="#D9D9D9"/>
</mask>
<g mask="url(#mask0_4_2)">
<path d="M44.3333 46.0833L29.6667 35L44.3333 23.9166V33.4166H56.3333V36.5833H44.3333V46.0833ZM41.6667 40.3041V29.6958L34.6333 35L41.6667 40.3041Z" fill="#1C1B1F"/>
</g>
<path d="M52 35L447 35" stroke="black" stroke-width="3" stroke-dasharray="10 10"/>
<mask id="mask1_4_2" style="mask-type:alpha" maskUnits="userSpaceOnUse" x="28" y="16" width="32" height="38">
<rect x="28" y="16" width="32" height="38" fill="#D9D9D9"/>
</mask>
<g mask="url(#mask1_4_2)">
<path d="M45.3333 46.0833L30.6667 35L45.3333 23.9166V33.4166H57.3333V36.5833H45.3333V46.0833ZM42.6667 40.3041V29.6958L35.6333 35L42.6667 40.3041Z" fill="#1C1B1F"/>
</g>
<mask id="mask2_4_2" style="mask-type:alpha" maskUnits="userSpaceOnUse" x="439" y="16" width="32" height="38">
<rect width="32" height="38" transform="matrix(-1 0 0 1 471 16)" fill="#D9D9D9"/>
</mask>
<g mask="url(#mask2_4_2)">
<path d="M453.667 46.0833L468.333 35L453.667 23.9166V33.4166H441.667V36.5833H453.667V46.0833ZM456.333 40.3041V29.6958L463.367 35L456.333 40.3041Z" fill="#1C1B1F"/>
</g>
<mask id="mask3_4_2" style="mask-type:alpha" maskUnits="userSpaceOnUse" x="224" y="9" width="52" height="52">
<rect x="224" y="9" width="51.7487" height="51.7487" fill="#FF2835"/>
</mask>
<g mask="url(#mask3_4_2)">
<path d="M246.748 51.4771L249.874 54.2802L253.001 51.4771C256.63 48.2069 259.631 45.3859 262.003 43.014C264.375 40.6422 266.261 38.513 267.663 36.6263C269.064 34.7396 270.044 33.0057 270.601 31.4245C271.158 29.8433 271.436 28.2261 271.436 26.5731C271.436 23.195 270.304 20.374 268.04 18.11C265.776 15.846 262.955 14.714 259.577 14.714C257.709 14.714 255.93 15.1093 254.241 15.8999C252.552 16.6905 251.096 17.8045 249.874 19.242C248.652 17.8045 247.197 16.6905 245.508 15.8999C243.819 15.1093 242.04 14.714 240.171 14.714C236.793 14.714 233.972 15.846 231.708 18.11C229.444 20.374 228.312 23.195 228.312 26.5731C228.312 28.2261 228.591 29.8433 229.148 31.4245C229.705 33.0057 230.684 34.7396 232.086 36.6263C233.487 38.513 235.374 40.6422 237.746 43.014C240.118 45.3859 243.118 48.2069 246.748 51.4771Z" fill="#FF9ED3"/>
</g>
</svg>
