<svg width="15" height="14" viewBox="0 0 15 14" fill="none" xmlns="http://www.w3.org/2000/svg">
<path d="M7.16699 8C8.5477 8 9.66699 6.88071 9.66699 5.5C9.66699 4.11929 8.5477 3 7.16699 3C5.78628 3 4.66699 4.11929 4.66699 5.5C4.66699 6.88071 5.78628 8 7.16699 8Z" stroke="#A0C2AC" stroke-linecap="round" stroke-linejoin="round"/>
<path d="M2.89746 11.9001C3.3437 11.1676 3.97087 10.5622 4.71867 10.1422C5.46647 9.72211 6.30975 9.50146 7.16746 9.50146C8.02517 9.50146 8.86846 9.72211 9.61625 10.1422C10.3641 10.5622 10.9912 11.1676 11.4375 11.9001" stroke="#A0C2AC" stroke-linecap="round" stroke-linejoin="round"/>
<path d="M7.16699 13.5C10.7568 13.5 13.667 10.5899 13.667 7C13.667 3.41015 10.7568 0.5 7.16699 0.5C3.57714 0.5 0.666992 3.41015 0.666992 7C0.666992 10.5899 3.57714 13.5 7.16699 13.5Z" stroke="#A0C2AC" stroke-linecap="round" stroke-linejoin="round"/>
</svg>
