<svg width="1000" height="500" viewBox="0 0 1000 500" fill="none" xmlns="http://www.w3.org/2000/svg">
<rect width="1000" height="500" fill="#FBFBFB"/>
<path d="M60.668 172V44.7344H90.5508V96.0625H141.703V44.7344H171.586V172H141.703V120.496H90.5508V172H60.668Z" fill="#A0C2AC"/>
<path d="M181.655 172V113.67H199.809V172H181.655ZM190.786 106.688C185.629 106.688 181.44 102.82 181.44 97.9863C181.44 93.1523 185.629 89.2852 190.786 89.2852C195.942 89.2852 200.239 93.1523 200.239 97.9863C200.239 102.82 195.942 106.688 190.786 106.688ZM235.181 195.096C218.423 195.096 208.433 187.469 207.573 176.404H225.191C225.943 180.594 229.917 182.42 235.611 182.42C242.163 182.42 246.675 179.734 246.675 172.107V161.795H246.03C243.775 167.059 238.189 171.248 229.488 171.248C216.597 171.248 206.07 162.332 206.07 142.674C206.07 122.264 217.134 112.918 229.38 112.918C238.726 112.918 243.775 118.396 245.923 123.66H246.46V113.67H264.507V172.322C264.507 187.146 252.583 195.096 235.181 195.096ZM235.611 157.928C242.593 157.928 246.675 152.234 246.675 142.674C246.675 133.113 242.7 127.098 235.611 127.098C228.521 127.098 224.654 133.328 224.654 142.674C224.654 152.234 228.628 157.928 235.611 157.928ZM290.963 138.592V172H272.809V94.2266H290.318V124.305H290.963C293.648 117.215 299.771 112.918 308.473 112.918C320.719 112.918 328.775 121.512 328.775 134.832V172H310.621V138.27C310.729 131.717 307.184 127.742 301.061 127.742C295.045 127.742 290.963 131.824 290.963 138.592ZM364.04 173.074C345.778 173.074 334.606 161.688 334.606 143.104C334.606 125.057 345.886 112.918 363.395 112.918C379.723 112.918 391.54 123.338 391.54 142.674V147.293H352.438V147.615C352.438 155.135 357.057 159.969 364.362 159.969C369.304 159.969 372.956 157.82 374.46 154.383H391.325C389.177 165.77 379.186 173.074 364.04 173.074ZM352.438 136.658H374.675C374.567 130.428 370.055 126.023 363.825 126.023C357.38 126.023 352.707 130.589 352.438 136.658ZM431.209 131.717C430.671 127.85 427.234 125.379 422.4 125.379C417.888 125.379 414.343 127.42 414.451 130.428C414.343 132.684 416.062 134.51 421.111 135.477L432.175 137.625C443.777 139.881 449.363 144.93 449.47 153.416C449.363 165.34 438.406 173.074 422.615 173.074C405.964 173.074 396.189 165.662 395.007 154.061H413.054C413.699 158.25 417.351 160.506 422.722 160.506C427.664 160.506 430.994 158.572 431.101 155.35C430.994 152.771 428.738 151.16 423.689 150.086L413.699 148.26C402.205 146.111 396.404 140.311 396.511 131.395C396.404 119.793 406.287 112.918 422.078 112.918C437.761 112.918 447.322 120.115 448.074 131.717H431.209ZM487.635 113.67V126.99H477V153.738C477 157.391 478.827 158.465 481.942 158.572C483.446 158.68 486.346 158.465 488.387 158.357V172.215C486.668 172.43 483.661 172.859 479.364 172.859C466.58 172.859 458.846 167.596 458.954 155.779V126.99H451.112V113.67H458.954V99.7051H477V113.67H487.635Z" fill="#323232"/>
<path d="M69.6646 251.728C68.1509 251.728 66.9058 250.482 66.9058 248.944C66.9058 247.431 68.1509 246.186 69.6646 246.186C71.2026 246.186 72.4478 247.431 72.4478 248.944C72.4478 250.482 71.2026 251.728 69.6646 251.728ZM107.958 236.225V252.484H105.761V244.55H103.075V251.898H100.902V236.615H103.075V242.646H105.761V236.225H107.958ZM108.593 255.731V257.611H93.4561V250.971H95.751V255.731H108.593ZM98.5342 238.056V244.477H92.5283V247.431C95.2383 247.431 97.3013 247.284 99.7061 246.82L99.9502 248.676C97.1914 249.188 94.9209 249.286 91.7227 249.286H90.2822V242.719H96.3125V239.911H90.2334V238.056H98.5342ZM121.118 237.567V239.447H113.403V245.99C117.285 245.978 119.604 245.868 122.266 245.331L122.485 247.211C119.604 247.772 117.114 247.919 112.769 247.919H111.108V237.567H121.118ZM128.149 236.2V248.847H125.83V243.329H119.897V241.425H125.83V236.2H128.149ZM128.149 249.896V257.782H113.721V249.896H128.149ZM116.016 251.728V255.902H125.879V251.728H116.016ZM149.342 236.2V258.075H147.12V246.674H144.41V257.001H142.213V236.615H144.41V244.77H147.12V236.2H149.342ZM139.747 238.666V252.313H131.251V238.666H139.747ZM133.448 240.497V250.458H137.574V240.497H133.448ZM159.255 240.741C159.255 243.354 161.403 245.795 164.797 246.723L163.698 248.529C161.135 247.821 159.182 246.234 158.156 244.159C157.18 246.442 155.251 248.236 152.614 249.066L151.467 247.235C154.836 246.21 156.936 243.573 156.936 240.741V240.619H152.077V238.764H156.936V236.2H159.279V238.764H164.089V240.619H159.255V240.741ZM169.265 236.225V249.555H166.945V236.225H169.265ZM161.916 249.97C166.506 249.97 169.338 251.459 169.338 253.998C169.338 256.562 166.506 258.051 161.916 258.026C157.302 258.051 154.47 256.562 154.47 253.998C154.47 251.459 157.302 249.97 161.916 249.97ZM161.916 251.801C158.669 251.801 156.813 252.606 156.813 253.998C156.813 255.438 158.669 256.244 161.916 256.244C165.163 256.244 167.043 255.438 167.043 253.998C167.043 252.606 165.163 251.801 161.916 251.801ZM178.153 249.262C178.178 244.672 179.472 240.839 181.767 237.567H184.159C182.475 239.984 180.863 244.916 180.863 249.262C180.863 253.632 182.475 258.539 184.159 260.98H181.767C179.472 257.709 178.178 253.876 178.153 249.262ZM194.731 236.518C199.565 236.518 202.544 237.958 202.544 240.57C202.544 242.938 200.017 244.367 195.83 244.574V246.405H204.717V248.285H184.771V246.405H193.584V244.574C189.446 244.354 186.919 242.926 186.919 240.57C186.919 237.958 189.922 236.518 194.731 236.518ZM194.731 238.275C191.338 238.251 189.287 239.105 189.312 240.57C189.287 241.986 191.338 242.816 194.731 242.816C198.125 242.816 200.151 241.986 200.151 240.57C200.151 239.105 198.125 238.251 194.731 238.275ZM189.531 249.481V251.679H199.883V249.481H202.202V257.807H187.236V249.481H189.531ZM189.531 255.927H199.883V253.485H189.531V255.927ZM213.092 240.155C213.092 243.305 215.069 246.308 218.316 247.577L217.047 249.384C214.654 248.419 212.896 246.503 211.969 244.11C211.029 246.674 209.161 248.7 206.622 249.726L205.377 247.87C208.746 246.625 210.772 243.5 210.797 240.155V237.445H213.092V240.155ZM223.614 236.225V252.509H221.295V245.624H217.047V243.744H221.295V241.205H217.047V239.325H221.295V236.225H223.614ZM224.103 255.731V257.611H209.332V250.873H211.676V255.731H224.103ZM238.802 240.204C238.802 243.158 240.779 246.039 244.075 247.187L242.806 248.993C240.413 248.078 238.631 246.271 237.703 243.988C236.751 246.527 234.883 248.529 232.308 249.506L231.062 247.675C234.456 246.454 236.482 243.427 236.507 240.131V237.543H238.802V240.204ZM249.324 236.225V252.533H247.005V243.109H242.391V241.205H247.005V236.225H249.324ZM249.812 255.731V257.611H235.042V250.702H237.386V255.731H249.812ZM261.142 237.763V239.643H254.818V242.084H260.897V243.866H254.818V246.527C257.748 246.503 259.677 246.393 261.923 245.966L262.143 247.87C259.579 248.358 257.504 248.456 254.013 248.432H252.597V237.763H261.142ZM270.346 236.225V249.506H268.148V243.671H265.463V249.335H263.29V236.615H265.463V241.791H268.148V236.225H270.346ZM270.346 250.556V258.075H268.051V252.436H255.478V250.556H270.346ZM294.444 236.2V244.916H297.838V246.845H294.444V258.051H292.125V236.2H294.444ZM288.731 238.495C288.707 244.818 285.924 250.458 278.722 254.022L277.428 252.216C282.909 249.481 285.887 245.526 286.363 240.424H278.526V238.495H288.731ZM315.686 242.108V243.988H300.671V236.591H302.966V242.108H315.686ZM317.98 246.308V248.212H298.01V246.308H317.98ZM307.971 249.994C312.683 249.994 315.515 251.435 315.515 253.974C315.515 256.537 312.683 257.978 307.971 257.978C303.234 257.978 300.378 256.537 300.378 253.974C300.378 251.435 303.234 249.994 307.971 249.994ZM307.971 251.801C304.626 251.825 302.722 252.558 302.722 253.974C302.722 255.365 304.626 256.195 307.971 256.195C311.267 256.195 313.195 255.365 313.195 253.974C313.195 252.558 311.267 251.825 307.971 251.801ZM324.622 249.262C324.598 253.876 323.304 257.709 321.009 260.98H318.616C320.301 258.539 321.912 253.632 321.912 249.262C321.912 244.916 320.301 239.984 318.616 237.567H321.009C323.304 240.839 324.598 244.672 324.622 249.262ZM69.6646 291.728C68.1509 291.728 66.9058 290.482 66.9058 288.944C66.9058 287.431 68.1509 286.186 69.6646 286.186C71.2026 286.186 72.4478 287.431 72.4478 288.944C72.4478 290.482 71.2026 291.728 69.6646 291.728ZM109.325 293.388V295.341H89.3057V293.388H109.325ZM107.494 278.3V280.204H104.149V287.504H107.421V289.359H91.0635V287.504H94.335V280.204H91.0146V278.3H107.494ZM96.6299 287.504H101.879V280.204H96.6299V287.504ZM129.932 293.51V295.463H109.912V293.51H118.726V289.677H112.354V282.719H125.195V279.643H112.305V277.738H127.49V284.574H114.648V287.772H128.003V289.677H121.021V293.51H129.932ZM148.707 276.2V287.504H146.363V276.2H148.707ZM148.707 288.505V293.925H136.524V296H149.464V297.855H134.254V292.24H146.412V290.336H134.181V288.505H148.707ZM143.36 277.641V279.472H141.261V284.647C142.323 284.574 143.373 284.477 144.361 284.354L144.459 286.039C140.089 286.698 134.986 286.845 131.153 286.845L130.885 284.989C131.715 284.989 132.618 284.977 133.546 284.965V279.472H131.471V277.641H143.36ZM135.768 284.916C136.842 284.879 137.94 284.843 139.039 284.77V279.472H135.768V284.916ZM174.588 289.872V291.752H162.405V295.927H174.905V297.807H160.086V289.872H174.588ZM174.466 276.2V288.7H172.146V283.5H167.898C167.459 286.063 165.201 287.846 162.283 287.846C158.987 287.846 156.546 285.648 156.546 282.621C156.546 279.545 158.987 277.348 162.283 277.372C165.152 277.348 167.386 279.069 167.874 281.596H172.146V276.2H174.466ZM162.283 279.325C160.232 279.301 158.768 280.644 158.768 282.621C158.768 284.525 160.232 285.868 162.283 285.868C164.261 285.868 165.75 284.525 165.75 282.621C165.75 280.644 164.261 279.301 162.283 279.325ZM182.768 277.836C185.734 277.836 187.907 280.351 188.261 284.403H192.777V276.2H195.072V298.124H192.777V286.283H188.285C188.029 290.543 185.807 293.192 182.768 293.192C179.496 293.192 177.201 290.214 177.226 285.502C177.201 280.814 179.496 277.836 182.768 277.836ZM182.768 279.911C180.79 279.911 179.423 282.06 179.423 285.502C179.423 288.969 180.79 291.117 182.768 291.117C184.745 291.117 186.112 288.969 186.112 285.502C186.112 282.06 184.745 279.911 182.768 279.911ZM217.461 293.437V295.365H197.441V293.437H206.255V288.944H199.736V277.689H202.056V281.449H212.798V277.689H215.093V288.944H208.55V293.437H217.461ZM202.056 287.064H212.798V283.329H202.056V287.064ZM236.236 276.2V298.075H233.893V276.2H236.236ZM229.718 278.544C229.718 284.94 226.983 290.507 219.488 294.096L218.268 292.216C224.09 289.445 226.922 285.502 227.374 280.399H219.317V278.544H229.718ZM69.6646 331.728C68.1509 331.728 66.9058 330.482 66.9058 328.944C66.9058 327.431 68.1509 326.186 69.6646 326.186C71.2026 326.186 72.4478 327.431 72.4478 328.944C72.4478 330.482 71.2026 331.728 69.6646 331.728ZM96.8496 319.691C96.8496 322.572 98.8516 325.233 102.123 326.308L100.878 328.139C98.4854 327.296 96.6909 325.587 95.751 323.427C94.7866 325.88 92.9312 327.797 90.3799 328.749L89.1348 326.894C92.5527 325.673 94.5303 322.768 94.5547 319.496V317.348H96.8496V319.691ZM106.493 316.2V321.693H109.667V323.646H106.493V329.408H104.174V316.2H106.493ZM99.4375 329.921C103.93 329.921 106.688 331.41 106.688 333.974C106.688 336.562 103.93 338.051 99.4375 338.026C94.8965 338.051 92.0889 336.562 92.0889 333.974C92.0889 331.41 94.8965 329.921 99.4375 329.921ZM99.4375 331.752C96.2637 331.752 94.3838 332.582 94.4082 333.974C94.3838 335.414 96.2637 336.195 99.4375 336.22C102.587 336.195 104.418 335.414 104.418 333.974C104.418 332.582 102.587 331.752 99.4375 331.752ZM128.687 316.2V338.075H126.465V326.771H123.633V336.952H121.509V316.64H123.633V324.867H126.465V316.2H128.687ZM118.848 318.837V320.717H112.964V330.849C115.649 330.824 117.676 330.702 120.02 330.263L120.19 332.167C117.554 332.704 115.308 332.802 112.109 332.826H110.645V318.837H118.848ZM140.65 329.823C145.167 329.823 147.901 331.337 147.901 333.925C147.901 336.537 145.167 338.051 140.65 338.075C136.085 338.051 133.302 336.537 133.302 333.925C133.302 331.337 136.085 329.823 140.65 329.823ZM140.65 331.654C137.477 331.654 135.597 332.46 135.621 333.925C135.597 335.39 137.477 336.22 140.65 336.22C143.8 336.22 145.631 335.39 145.631 333.925C145.631 332.46 143.8 331.654 140.65 331.654ZM147.706 316.2V321.547H150.88V323.524H147.706V329.262H145.387V316.2H147.706ZM133.644 317.567V320.717H139.381V317.567H141.676V327.724H131.373V317.567H133.644ZM133.644 325.868H139.381V322.548H133.644V325.868ZM163.308 318.544V319.887C163.308 321.718 163.308 324.55 162.673 328.456L160.378 328.285C160.927 324.782 160.988 322.255 161.013 320.424H152.126V318.544H163.308ZM157.692 324.794V331.337C160.024 331.264 162.392 331.105 164.577 330.824L164.699 332.558C160.134 333.29 155.056 333.388 151.174 333.363L150.905 331.483C152.272 331.471 153.798 331.459 155.397 331.41V324.794H157.692ZM168.166 316.2V325.233H171.511V327.211H168.166V338.075H165.822V316.2H168.166ZM183.378 322.89C183.378 326.283 184.965 329.823 188.017 331.41L186.698 333.144C184.586 332.021 183.109 329.933 182.328 327.455C181.535 330.092 180.07 332.375 177.958 333.607L176.591 331.898C179.594 330.141 181.181 326.405 181.205 322.89V322.084H177.152V320.155H181.205V316.981H183.378V320.155H187.357V322.084H183.378V322.89ZM195.731 316.2V338.075H193.51V326.845H190.897V337.001H188.7V316.615H190.897V324.892H193.51V316.2H195.731ZM209.209 317.787V319.643H201.03V322.06H208.599V323.891H201.03V326.381C205.413 326.405 207.964 326.332 210.918 325.819L211.162 327.699C207.988 328.212 205.278 328.285 200.493 328.285H198.687V317.787H209.209ZM215.581 316.225V329.677H213.262V316.225H215.581ZM208.257 329.97C212.847 329.97 215.703 331.459 215.703 333.998C215.703 336.562 212.847 338.051 208.257 338.026C203.618 338.051 200.811 336.562 200.811 333.998C200.811 331.459 203.618 329.97 208.257 329.97ZM208.257 331.801C204.985 331.801 203.13 332.606 203.13 333.998C203.13 335.438 204.985 336.244 208.257 336.244C211.455 336.244 213.384 335.438 213.384 333.998C213.384 332.606 211.455 331.801 208.257 331.801ZM240.192 316.2V324.916H243.586V326.845H240.192V338.051H237.873V316.2H240.192ZM234.479 318.495C234.455 324.818 231.672 330.458 224.47 334.022L223.176 332.216C228.657 329.481 231.635 325.526 232.111 320.424H224.274V318.495H234.479ZM261.434 322.108V323.988H246.419V316.591H248.714V322.108H261.434ZM263.729 326.308V328.212H243.758V326.308H263.729ZM253.719 329.994C258.431 329.994 261.263 331.435 261.263 333.974C261.263 336.537 258.431 337.978 253.719 337.978C248.982 337.978 246.126 336.537 246.126 333.974C246.126 331.435 248.982 329.994 253.719 329.994ZM253.719 331.801C250.374 331.825 248.47 332.558 248.47 333.974C248.47 335.365 250.374 336.195 253.719 336.195C257.015 336.195 258.943 335.365 258.943 333.974C258.943 332.558 257.015 331.825 253.719 331.801ZM69.6646 371.728C68.1509 371.728 66.9058 370.482 66.9058 368.944C66.9058 367.431 68.1509 366.186 69.6646 366.186C71.2026 366.186 72.4478 367.431 72.4478 368.944C72.4478 370.482 71.2026 371.728 69.6646 371.728ZM100.463 358.422C100.438 364.867 98.3389 370.604 90.5752 374.56L89.2812 372.802C93.1143 370.836 95.4824 368.48 96.8008 365.697L89.7207 366.381L89.3545 364.379L97.5332 363.866C97.8628 362.743 98.0703 361.547 98.168 360.302H90.4775V358.422H100.463ZM107.519 356.2V378.075H105.224V366.771H100.414V364.867H105.224V356.2H107.519ZM127.979 356.859V358.617H124.805V362.401H127.881V364.184H111.841V362.401H114.941V358.617H111.743V356.859H127.979ZM129.858 365.795V367.626H109.912V365.795H129.858ZM127.344 369.335V374.34H114.6V376.098H127.954V377.855H112.329V372.704H125.049V371.068H112.305V369.335H127.344ZM117.236 362.401H122.485V358.617H117.236V362.401ZM149.342 356.2V378.075H147.12V366.674H144.41V377.001H142.213V356.615H144.41V364.77H147.12V356.2H149.342ZM139.747 358.666V372.313H131.251V358.666H139.747ZM133.448 360.497V370.458H137.574V360.497H133.448ZM169.289 356.2V378.075H166.97V356.2H169.289ZM154.763 358.324V370.507C157.949 370.482 161.306 370.226 164.821 369.506L165.139 371.459C161.257 372.24 157.741 372.509 154.299 372.509H152.468V358.324H154.763ZM189.993 356.2V378.124H187.674V365.966H183.157V364.062H187.674V356.2H189.993ZM179.544 362.353C179.544 366.063 181.863 370.043 185.232 371.532L183.841 373.388C181.314 372.167 179.361 369.616 178.396 366.625C177.42 369.811 175.43 372.533 172.903 373.827L171.487 372.021C174.832 370.434 177.176 366.283 177.2 362.353V360.302H172.366V358.397H184.402V360.302H179.544V362.353ZM217.461 373.388V375.292H197.441V373.388H206.206V368.188H208.501V373.388H217.461ZM208.55 359.252C208.55 362.719 212.358 365.966 216.582 366.674L215.581 368.578C212.041 367.87 208.782 365.685 207.329 362.67C205.889 365.673 202.666 367.895 199.15 368.578L198.125 366.674C202.324 365.966 206.108 362.719 206.108 359.252V357.592H208.55V359.252ZM236.773 356.2V378.075H234.552V366.723H231.842V377.025H229.669V356.786H231.842V364.843H234.552V356.2H236.773ZM227.496 358.983C227.472 364.745 225.567 369.896 219.317 373.437L217.975 371.825C222.833 369.079 224.884 365.355 225.25 360.888H218.902V358.983H227.496ZM250.422 357.787V359.643H242.243V362.06H249.812V363.891H242.243V366.381C246.625 366.405 249.177 366.332 252.131 365.819L252.375 367.699C249.201 368.212 246.491 368.285 241.706 368.285H239.899V357.787H250.422ZM256.794 356.225V369.677H254.475V356.225H256.794ZM249.47 369.97C254.06 369.97 256.916 371.459 256.916 373.998C256.916 376.562 254.06 378.051 249.47 378.026C244.831 378.051 242.023 376.562 242.023 373.998C242.023 371.459 244.831 369.97 249.47 369.97ZM249.47 371.801C246.198 371.801 244.343 372.606 244.343 373.998C244.343 375.438 246.198 376.244 249.47 376.244C252.668 376.244 254.597 375.438 254.597 373.998C254.597 372.606 252.668 371.801 249.47 371.801ZM283.188 356.2V378.075H280.966V366.674H278.256V377.001H276.059V356.615H278.256V364.77H280.966V356.2H283.188ZM273.593 358.666V372.313H265.097V358.666H273.593ZM267.294 360.497V370.458H271.42V360.497H267.294ZM293.101 360.741C293.101 363.354 295.249 365.795 298.643 366.723L297.544 368.529C294.98 367.821 293.027 366.234 292.002 364.159C291.025 366.442 289.097 368.236 286.46 369.066L285.312 367.235C288.682 366.21 290.781 363.573 290.781 360.741V360.619H285.923V358.764H290.781V356.2H293.125V358.764H297.935V360.619H293.101V360.741ZM303.11 356.225V369.555H300.791V356.225H303.11ZM295.762 369.97C300.352 369.97 303.184 371.459 303.184 373.998C303.184 376.562 300.352 378.051 295.762 378.026C291.147 378.051 288.315 376.562 288.315 373.998C288.315 371.459 291.147 369.97 295.762 369.97ZM295.762 371.801C292.515 371.801 290.659 372.606 290.659 373.998C290.659 375.438 292.515 376.244 295.762 376.244C299.009 376.244 300.889 375.438 300.889 373.998C300.889 372.606 299.009 371.801 295.762 371.801ZM330.676 368.749V370.629H321.74V378.051H319.47V370.629H310.656V368.749H330.676ZM328.161 357.372V365.966H313.171V357.372H328.161ZM315.441 359.228V364.159H325.842V359.228H315.441ZM350.062 356.2V378.075H347.84V356.2H350.062ZM345.618 356.664V376.977H343.421V365.844H340.027V363.939H343.421V356.664H345.618ZM337.879 362.304C337.879 366.039 339.393 369.774 342.469 371.557L341.077 373.266C338.99 372.021 337.549 369.811 336.805 367.162C336.011 370.019 334.522 372.448 332.386 373.778L330.97 372.045C334.07 370.165 335.657 366.186 335.657 362.304V360.546H331.629V358.666H341.639V360.546H337.879V362.304ZM369.081 356.225V363.256H372.255V365.185H369.081V372.582H366.762V356.225H369.081ZM364.955 358.764V360.644H351.918V358.764H357.289V356.2H359.608V358.764H364.955ZM358.437 361.693C361.586 361.693 363.734 363.329 363.734 365.819C363.734 368.31 361.586 369.921 358.437 369.921C355.263 369.921 353.114 368.31 353.114 365.819C353.114 363.329 355.263 361.693 358.437 361.693ZM358.437 363.476C356.581 363.476 355.336 364.379 355.36 365.819C355.336 367.235 356.581 368.114 358.437 368.114C360.292 368.114 361.537 367.235 361.562 365.819C361.537 364.379 360.292 363.476 358.437 363.476ZM370.009 375.731V377.611H355.214V371.288H357.533V375.731H370.009ZM69.6646 411.728C68.1509 411.728 66.9058 410.482 66.9058 408.944C66.9058 407.431 68.1509 406.186 69.6646 406.186C71.2026 406.186 72.4478 407.431 72.4478 408.944C72.4478 410.482 71.2026 411.728 69.6646 411.728ZM97.2646 399.35C97.2402 402.377 99.3154 405.136 102.685 406.259L101.513 408.09C98.9858 407.199 97.0815 405.417 96.0928 403.134C95.1162 405.587 93.1997 407.528 90.5996 408.456L89.4277 406.649C92.8457 405.429 94.8965 402.475 94.8965 399.35V397.25H97.2646V399.35ZM107.445 410.385V418.075H105.126V412.265H92.626V410.385H107.445ZM107.445 396.2V409.335H105.126V396.2H107.445ZM117.505 401.767C117.48 405.648 119.727 409.604 122.998 411.19L121.558 413.046C119.177 411.813 117.334 409.359 116.382 406.43C115.393 409.555 113.477 412.167 110.986 413.461L109.546 411.581C112.915 409.97 115.186 405.771 115.186 401.767V398.031H117.505V401.767ZM126.953 396.2V404.916H130.469V406.894H126.953V418.075H124.634V396.2H126.953ZM148.829 396.225V412.729H146.485V409.872H141.847V408.017H146.485V396.225H148.829ZM149.366 415.731V417.611H133.57V410.946H135.89V415.731H149.366ZM130.372 404.745C133.106 404.733 136.537 404.696 139.918 404.477C140.284 402.267 140.382 400.546 140.406 399.325H132.35V397.445H142.726V398.3C142.726 399.484 142.726 401.51 142.262 404.281C143.067 404.208 143.861 404.123 144.63 404.013L144.801 405.697C142.835 406.039 140.797 406.247 138.795 406.381V411.312H136.476V406.503C134.388 406.601 132.411 406.625 130.689 406.625L130.372 404.745ZM162.991 416.244C159.646 416.244 157.132 414.193 157.01 411.386H159.622C159.769 412.899 161.209 413.998 162.991 413.998C165.14 413.998 166.678 412.436 166.678 410.336C166.678 408.188 165.091 406.625 162.869 406.601C161.453 406.601 160.379 407.064 159.769 408.163H157.229L158.377 398.324H168.387V400.619H160.599L160.013 405.575H160.184C160.916 404.867 162.161 404.379 163.504 404.379C166.824 404.379 169.29 406.845 169.29 410.263C169.29 413.754 166.678 416.244 162.991 416.244ZM188.48 396.2V418.075H186.161V396.2H188.48ZM170.512 412.118C172.306 412.106 174.369 412.094 176.518 412.021V409.848C173.954 409.518 172.294 408.017 172.318 405.868C172.294 403.402 174.442 401.767 177.616 401.767C180.814 401.767 183.012 403.402 183.012 405.868C183.012 407.992 181.352 409.481 178.812 409.823V411.947C180.839 411.862 182.89 411.703 184.818 411.459L184.989 413.192C180.131 413.998 174.833 414.047 170.829 414.047L170.512 412.118ZM184.33 398.812V400.668H170.976V398.812H176.518V396.249H178.837V398.812H184.33ZM177.616 403.573C175.785 403.573 174.491 404.477 174.516 405.868C174.491 407.26 175.785 408.114 177.616 408.114C179.496 408.114 180.79 407.26 180.79 405.868C180.79 404.477 179.496 403.573 177.616 403.573ZM214.874 396.2V418.075H212.652V396.2H214.874ZM210.431 396.664V416.977H208.233V405.844H204.84V403.939H208.233V396.664H210.431ZM202.691 402.304C202.691 406.039 204.205 409.774 207.281 411.557L205.89 413.266C203.802 412.021 202.362 409.811 201.617 407.162C200.824 410.019 199.334 412.448 197.198 413.778L195.782 412.045C198.883 410.165 200.47 406.186 200.47 402.304V400.546H196.441V398.666H206.451V400.546H202.691V402.304ZM226.569 409.945C231.306 409.945 234.284 411.435 234.309 413.998C234.284 416.537 231.306 418.051 226.569 418.026C221.882 418.051 218.879 416.537 218.879 413.998C218.879 411.435 221.882 409.945 226.569 409.945ZM226.569 411.703C223.249 411.703 221.174 412.558 221.198 413.998C221.174 415.414 223.249 416.244 226.569 416.244C229.914 416.244 231.989 415.414 232.014 413.998C231.989 412.558 229.914 411.703 226.569 411.703ZM234.138 397.274V399.105C234.138 400.863 234.138 402.67 233.527 404.916L231.257 404.672C231.843 402.438 231.843 400.827 231.843 399.13H219.05V397.274H234.138ZM236.628 406.259V408.139H216.73V406.259H224.714V402.157H226.984V406.259H236.628ZM243.734 409.262C243.759 404.672 245.053 400.839 247.348 397.567H249.74C248.056 399.984 246.444 404.916 246.444 409.262C246.444 413.632 248.056 418.539 249.74 420.98H247.348C245.053 417.709 243.759 413.876 243.734 409.262ZM257.114 416.244C253.77 416.244 251.255 414.193 251.133 411.386H253.745C253.892 412.899 255.332 413.998 257.114 413.998C259.263 413.998 260.801 412.436 260.801 410.336C260.801 408.188 259.214 406.625 256.992 406.601C255.576 406.601 254.502 407.064 253.892 408.163H251.353L252.5 398.324H262.51V400.619H254.722L254.136 405.575H254.307C255.039 404.867 256.284 404.379 257.627 404.379C260.947 404.379 263.413 406.845 263.413 410.263C263.413 413.754 260.801 416.244 257.114 416.244ZM275.597 398.129V408.334H265.367V398.129H275.597ZM267.638 400.009V406.503H273.326V400.009H267.638ZM281.7 396.176V402.719H284.874V404.672H281.7V412.216H279.381V396.176H281.7ZM282.628 415.731V417.611H267.833V410.678H270.152V415.731H282.628ZM303.308 396.225V412.802H300.988V410.702H296.594V409.066H300.988V396.225H303.308ZM303.845 415.731V417.611H288.049V411.19H290.344V415.731H303.845ZM285.021 406.21C289.074 406.186 294.519 406.137 299.182 405.551L299.328 407.211C297.46 407.516 295.495 407.724 293.566 407.846V412.118H291.247V407.968C289.123 408.065 287.084 408.078 285.314 408.065L285.021 406.21ZM292.175 397.055C295.373 397.055 297.595 398.593 297.595 400.912C297.595 403.231 295.373 404.721 292.175 404.721C288.928 404.721 286.73 403.231 286.73 400.912C286.73 398.593 288.928 397.055 292.175 397.055ZM292.175 398.788C290.222 398.764 288.903 399.594 288.928 400.912C288.903 402.206 290.222 403.012 292.175 403.012C294.055 403.012 295.373 402.206 295.397 400.912C295.373 399.594 294.055 398.764 292.175 398.788ZM328.017 396.225V403.256H331.19V405.185H328.017V412.582H325.697V396.225H328.017ZM323.891 398.764V400.644H310.854V398.764H316.225V396.2H318.544V398.764H323.891ZM317.372 401.693C320.521 401.693 322.67 403.329 322.67 405.819C322.67 408.31 320.521 409.921 317.372 409.921C314.198 409.921 312.05 408.31 312.05 405.819C312.05 403.329 314.198 401.693 317.372 401.693ZM317.372 403.476C315.517 403.476 314.271 404.379 314.296 405.819C314.271 407.235 315.517 408.114 317.372 408.114C319.228 408.114 320.473 407.235 320.497 405.819C320.473 404.379 319.228 403.476 317.372 403.476ZM328.944 415.731V417.611H314.149V411.288H316.469V415.731H328.944ZM349.16 406.283V408.139H342.544V413.485H351.455V415.39H331.436V413.485H340.249V408.139H333.926V397.885H348.965V399.765H336.245V406.283H349.16ZM358.048 409.262C358.023 413.876 356.729 417.709 354.435 420.98H352.042C353.727 418.539 355.338 413.632 355.338 409.262C355.338 404.916 353.727 399.984 352.042 397.567H354.435C356.729 400.839 358.023 404.672 358.048 409.262ZM69.6646 451.728C68.1509 451.728 66.9058 450.482 66.9058 448.944C66.9058 447.431 68.1509 446.186 69.6646 446.186C71.2026 446.186 72.4478 447.431 72.4478 448.944C72.4478 450.482 71.2026 451.728 69.6646 451.728ZM100.414 439.301C100.414 442.865 104.223 446.234 108.422 446.991L107.348 448.92C103.856 448.163 100.634 445.868 99.2178 442.792C97.7773 445.844 94.5669 448.139 91.0635 448.92L90.0381 446.991C94.1885 446.21 97.9727 442.865 97.9727 439.301V437.641H100.414V439.301ZM109.325 453.266V455.194H89.3057V453.266H109.325ZM127.637 446.576V448.48H112.402V438.153H127.441V440.058H114.697V446.576H127.637ZM129.932 453.266V455.194H109.912V453.266H129.932ZM139.747 438.666V444.354H142.677V436.615H144.898V457.001H142.677V446.259H139.747V452.313H131.251V438.666H139.747ZM133.448 440.497V450.458H137.574V440.497H133.448ZM149.342 436.2V458.075H147.12V436.2H149.342ZM175.003 436.2V458.075H172.781V436.2H175.003ZM170.56 436.664V456.977H168.362V445.844H164.969V443.939H168.362V436.664H170.56ZM162.82 442.304C162.82 446.039 164.334 449.774 167.41 451.557L166.019 453.266C163.931 452.021 162.491 449.811 161.746 447.162C160.953 450.019 159.463 452.448 157.327 453.778L155.911 452.045C159.012 450.165 160.599 446.186 160.599 442.304V440.546H156.57V438.666H166.58V440.546H162.82V442.304ZM186.698 449.945C191.435 449.945 194.413 451.435 194.438 453.998C194.413 456.537 191.435 458.051 186.698 458.026C182.011 458.051 179.008 456.537 179.008 453.998C179.008 451.435 182.011 449.945 186.698 449.945ZM186.698 451.703C183.378 451.703 181.303 452.558 181.327 453.998C181.303 455.414 183.378 456.244 186.698 456.244C190.043 456.244 192.118 455.414 192.143 453.998C192.118 452.558 190.043 451.703 186.698 451.703ZM194.267 437.274V439.105C194.267 440.863 194.267 442.67 193.656 444.916L191.386 444.672C191.972 442.438 191.972 440.827 191.972 439.13H179.179V437.274H194.267ZM196.757 446.259V448.139H176.859V446.259H184.843V442.157H187.113V446.259H196.757ZM203.863 449.262C203.888 444.672 205.182 440.839 207.477 437.567H209.869C208.185 439.984 206.573 444.916 206.573 449.262C206.573 453.632 208.185 458.539 209.869 460.98H207.477C205.182 457.709 203.888 453.876 203.863 449.262ZM218.439 439.35C218.415 442.377 220.49 445.136 223.859 446.259L222.688 448.09C220.161 447.199 218.256 445.417 217.268 443.134C216.291 445.587 214.375 447.528 211.774 448.456L210.603 446.649C214.021 445.429 216.071 442.475 216.071 439.35V437.25H218.439V439.35ZM228.62 450.385V458.075H226.301V452.265H213.801V450.385H228.62ZM228.62 436.2V449.335H226.301V436.2H228.62ZM238.729 440.229C238.729 443.012 240.657 445.551 243.978 446.601L242.879 448.407C240.389 447.614 238.57 445.966 237.605 443.891C236.653 446.283 234.737 448.175 232.112 449.091L230.916 447.235C234.334 446.112 236.385 443.28 236.409 440.253V439.643H231.6V437.763H243.44V439.643H238.729V440.229ZM248.274 436.2V441.62H251.448V443.524H248.274V449.335H245.955V436.2H248.274ZM241.219 449.872C245.735 449.872 248.47 451.361 248.47 453.925C248.47 456.513 245.735 458.051 241.219 458.026C236.653 458.051 233.87 456.513 233.87 453.925C233.87 451.361 236.653 449.872 241.219 449.872ZM241.219 451.703C238.045 451.703 236.165 452.509 236.189 453.925C236.165 455.39 238.045 456.195 241.219 456.195C244.368 456.195 246.199 455.39 246.199 453.925C246.199 452.509 244.368 451.703 241.219 451.703ZM264.364 437.958V439.667H259.677C259.787 441.242 261.874 442.536 264.853 442.938L264.071 444.623C261.459 444.232 259.506 443.17 258.578 441.693C257.626 443.256 255.636 444.391 252.987 444.818L252.206 443.158C255.209 442.707 257.284 441.327 257.406 439.667H252.719V437.958H257.406V436.127H259.677V437.958H264.364ZM259.677 443.891V445.99C261.593 445.905 263.51 445.758 265.292 445.526L265.463 447.138C260.873 447.895 255.771 447.943 251.913 447.943L251.669 446.161C253.378 446.161 255.355 446.149 257.406 446.088V443.891H259.677ZM268.905 449.408V454.34H256.82V456.098H269.711V457.855H254.501V452.729H266.61V451.117H254.452V449.408H268.905ZM268.905 436.2V441.278H272.03V443.158H268.905V448.505H266.586V436.2H268.905ZM278.354 437.47C280.173 437.458 281.724 438.141 282.749 439.276H288.218V436.2H290.537V449.115H288.218V446.161H282.725C281.711 447.284 280.161 447.956 278.354 447.943C275.059 447.968 272.617 445.771 272.617 442.719C272.617 439.643 275.059 437.445 278.354 437.47ZM278.354 439.472C276.304 439.447 274.839 440.766 274.839 442.719C274.839 444.623 276.304 445.99 278.354 445.966C280.356 445.99 281.821 444.623 281.821 442.719C281.821 440.766 280.356 439.447 278.354 439.472ZM283.213 449.604C287.754 449.604 290.61 451.142 290.61 453.827C290.61 456.488 287.754 458.051 283.213 458.026C278.647 458.051 275.791 456.488 275.815 453.827C275.791 451.142 278.647 449.604 283.213 449.604ZM283.213 451.386C280.015 451.386 278.062 452.265 278.086 453.827C278.062 455.341 280.015 456.195 283.213 456.195C286.436 456.195 288.34 455.341 288.34 453.827C288.34 452.265 286.436 451.386 283.213 451.386ZM283.799 441.132C283.958 441.62 284.043 442.157 284.043 442.719C284.043 443.256 283.958 443.781 283.823 444.257H288.218V441.132H283.799ZM316.784 436.2V458.075H314.562V436.2H316.784ZM312.341 436.664V456.977H310.144V445.844H306.75V443.939H310.144V436.664H312.341ZM304.602 442.304C304.602 446.039 306.115 449.774 309.191 451.557L307.8 453.266C305.712 452.021 304.272 449.811 303.527 447.162C302.734 450.019 301.245 452.448 299.108 453.778L297.692 452.045C300.793 450.165 302.38 446.186 302.38 442.304V440.546H298.352V438.666H308.361V440.546H304.602V442.304ZM328.479 449.945C333.216 449.945 336.194 451.435 336.219 453.998C336.194 456.537 333.216 458.051 328.479 458.026C323.792 458.051 320.789 456.537 320.789 453.998C320.789 451.435 323.792 449.945 328.479 449.945ZM328.479 451.703C325.159 451.703 323.084 452.558 323.108 453.998C323.084 455.414 325.159 456.244 328.479 456.244C331.824 456.244 333.899 455.414 333.924 453.998C333.899 452.558 331.824 451.703 328.479 451.703ZM336.048 437.274V439.105C336.048 440.863 336.048 442.67 335.438 444.916L333.167 444.672C333.753 442.438 333.753 440.827 333.753 439.13H320.96V437.274H336.048ZM338.538 446.259V448.139H318.641V446.259H326.624V442.157H328.895V446.259H338.538ZM350.283 454.877V450.214H345.62V447.87H350.283V443.207H352.627V447.87H357.314V450.214H352.627V454.877H350.283ZM384.318 448.749V450.629H375.383V458.051H373.112V450.629H364.299V448.749H384.318ZM381.804 437.372V445.966H366.813V437.372H381.804ZM369.084 439.228V444.159H379.484V439.228H369.084ZM403.704 436.2V458.075H401.482V436.2H403.704ZM399.261 436.664V456.977H397.063V445.844H393.67V443.939H397.063V436.664H399.261ZM391.521 442.304C391.521 446.039 393.035 449.774 396.111 451.557L394.72 453.266C392.632 452.021 391.192 449.811 390.447 447.162C389.654 450.019 388.165 452.448 386.028 453.778L384.612 452.045C387.713 450.165 389.3 446.186 389.3 442.304V440.546H385.271V438.666H395.281V440.546H391.521V442.304ZM422.724 436.225V443.256H425.897V445.185H422.724V452.582H420.404V436.225H422.724ZM418.598 438.764V440.644H405.561V438.764H410.932V436.2H413.251V438.764H418.598ZM412.079 441.693C415.229 441.693 417.377 443.329 417.377 445.819C417.377 448.31 415.229 449.921 412.079 449.921C408.905 449.921 406.757 448.31 406.757 445.819C406.757 443.329 408.905 441.693 412.079 441.693ZM412.079 443.476C410.224 443.476 408.979 444.379 409.003 445.819C408.979 447.235 410.224 448.114 412.079 448.114C413.935 448.114 415.18 447.235 415.204 445.819C415.18 444.379 413.935 443.476 412.079 443.476ZM423.651 455.731V457.611H408.856V451.288H411.176V455.731H423.651ZM451.266 453.437V455.365H431.246V453.437H440.06V448.944H433.541V437.689H435.86V441.449H446.603V437.689H448.897V448.944H442.354V453.437H451.266ZM435.86 447.064H446.603V443.329H435.86V447.064ZM470.09 436.2V449.213H467.771V443.671H463.693V441.767H467.771V436.2H470.09ZM462.766 449.823C467.355 449.823 470.163 451.337 470.163 453.949C470.163 456.562 467.355 458.051 462.766 458.075C458.176 458.051 455.344 456.562 455.368 453.949C455.344 451.337 458.176 449.823 462.766 449.823ZM462.766 451.63C459.567 451.63 457.663 452.46 457.663 453.949C457.663 455.414 459.567 456.269 462.766 456.244C465.964 456.269 467.868 455.414 467.868 453.949C467.868 452.46 465.964 451.63 462.766 451.63ZM459.689 440.058C459.689 442.841 461.667 445.526 464.963 446.649L463.767 448.48C461.313 447.626 459.506 445.88 458.566 443.72C457.602 446.173 455.686 448.139 453.073 449.091L451.853 447.235C455.246 446.063 457.321 443.109 457.321 440.082V439.594H452.585V437.714H464.377V439.594H459.689V440.058ZM494.604 436.2V444.916H497.997V446.845H494.604V458.051H492.284V436.2H494.604ZM488.891 438.495C488.866 444.818 486.083 450.458 478.881 454.022L477.587 452.216C483.068 449.481 486.046 445.526 486.522 440.424H478.686V438.495H488.891ZM515.845 442.108V443.988H500.83V436.591H503.125V442.108H515.845ZM518.14 446.308V448.212H498.169V446.308H518.14ZM508.13 449.994C512.842 449.994 515.674 451.435 515.674 453.974C515.674 456.537 512.842 457.978 508.13 457.978C503.394 457.978 500.537 456.537 500.537 453.974C500.537 451.435 503.394 449.994 508.13 449.994ZM508.13 451.801C504.785 451.825 502.881 452.558 502.881 453.974C502.881 455.365 504.785 456.195 508.13 456.195C511.426 456.195 513.354 455.365 513.354 453.974C513.354 452.558 511.426 451.825 508.13 451.801ZM524.781 449.262C524.757 453.876 523.463 457.709 521.168 460.98H518.775C520.46 458.539 522.071 453.632 522.071 449.262C522.071 444.916 520.46 439.984 518.775 437.567H521.168C523.463 440.839 524.757 444.672 524.781 449.262Z" fill="#323232"/>
</svg>
