<svg width="1000" height="500" viewBox="0 0 1000 500" fill="none" xmlns="http://www.w3.org/2000/svg">
<rect width="1000" height="500" fill="#FBFBFB"/>
<path d="M87.0352 181H54.6914L97.9336 53.7344H137.66L180.727 181H148.559L139.945 153.754H95.6484L87.0352 181ZM102.855 130.902H132.738L118.324 85.1992H117.27L102.855 130.902Z" fill="#A0C2AC"/>
<path d="M206.371 181.859C193.373 181.859 182.954 171.654 182.954 151.889C182.954 131.371 194.018 121.918 206.264 121.918C215.61 121.918 220.551 127.396 222.807 132.66H223.237V103.227H241.284V181H223.344V171.547H222.807C220.444 176.811 215.288 181.859 206.371 181.859ZM212.495 167.68C219.477 167.68 223.559 161.449 223.559 151.781C223.559 142.113 219.584 136.098 212.495 136.098C205.405 136.098 201.538 142.328 201.538 151.781C201.538 161.449 205.512 167.68 212.495 167.68ZM305.874 122.67L285.786 181H265.054L245.073 122.67H264.087L275.152 163.168H275.796L286.753 122.67H305.874ZM305.26 164.779C305.26 151.889 315.25 147.27 326.852 146.518C331.041 146.249 338.346 145.98 340.816 145.873V141.146C340.816 137.064 337.809 134.809 332.867 134.809C328.033 134.809 325.025 136.85 324.273 140.717H307.408C308.16 130.404 316.969 121.918 333.297 121.918C347.691 121.918 358.971 128.793 358.971 141.361V181H341.891V172.836H341.461C338.238 178.744 332.652 182.074 324.488 182.074C313.316 182.074 305.26 176.381 305.26 164.779ZM322.447 164.027C322.447 168.002 325.562 170.043 329.967 170.043C336.09 170.043 341.031 166.068 340.924 160.268V156.508C338.722 156.615 332.545 156.884 329.859 157.152C325.348 157.689 322.447 160.16 322.447 164.027ZM384.889 147.592V181H366.735V122.67H383.923V133.305H384.567C387.253 126.215 393.698 121.918 402.292 121.918C414.538 121.918 422.595 130.619 422.487 143.832V181H404.44V147.27C404.44 140.717 400.895 136.742 394.88 136.742C388.864 136.742 384.889 140.824 384.889 147.592ZM457.644 182.074C439.275 182.074 428.318 169.828 428.318 151.996C428.318 134.164 439.382 121.918 457.644 121.918C473.65 121.918 484.07 131.156 484.5 145.336H467.634C466.775 139.428 463.337 135.668 457.859 135.668C451.199 135.668 446.795 141.361 446.795 151.781C446.795 162.309 451.091 168.002 457.859 168.002C463.015 168.002 466.882 164.672 467.634 158.441H484.5C483.962 172.621 473.865 182.074 457.644 182.074ZM517.723 182.074C499.461 182.074 488.289 170.688 488.289 152.104C488.289 134.057 499.569 121.918 517.079 121.918C533.407 121.918 545.223 132.338 545.223 151.674V156.293H506.121V156.615C506.121 164.135 510.741 168.969 518.045 168.969C522.987 168.969 526.639 166.82 528.143 163.383H545.008C542.86 174.77 532.87 182.074 517.723 182.074ZM506.121 145.658H528.358C528.25 139.428 523.739 135.023 517.508 135.023C511.063 135.023 506.39 139.589 506.121 145.658Z" fill="#323232"/>
<path d="M69.6646 268.728C68.1509 268.728 66.9058 267.482 66.9058 265.944C66.9058 264.431 68.1509 263.186 69.6646 263.186C71.2026 263.186 72.4478 264.431 72.4478 265.944C72.4478 267.482 71.2026 268.728 69.6646 268.728ZM107.958 253.225V269.484H105.761V261.55H103.075V268.898H100.902V253.615H103.075V259.646H105.761V253.225H107.958ZM108.593 272.731V274.611H93.4561V267.971H95.751V272.731H108.593ZM98.5342 255.056V261.477H92.5283V264.431C95.2383 264.431 97.3013 264.284 99.7061 263.82L99.9502 265.676C97.1914 266.188 94.9209 266.286 91.7227 266.286H90.2822V259.719H96.3125V256.911H90.2334V255.056H98.5342ZM121.118 254.567V256.447H113.403V262.99C117.285 262.978 119.604 262.868 122.266 262.331L122.485 264.211C119.604 264.772 117.114 264.919 112.769 264.919H111.108V254.567H121.118ZM128.149 253.2V265.847H125.83V260.329H119.897V258.425H125.83V253.2H128.149ZM128.149 266.896V274.782H113.721V266.896H128.149ZM116.016 268.728V272.902H125.879V268.728H116.016ZM149.342 253.2V275.075H147.12V263.674H144.41V274.001H142.213V253.615H144.41V261.77H147.12V253.2H149.342ZM139.747 255.666V269.313H131.251V255.666H139.747ZM133.448 257.497V267.458H137.574V257.497H133.448ZM159.255 257.741C159.255 260.354 161.403 262.795 164.797 263.723L163.698 265.529C161.135 264.821 159.182 263.234 158.156 261.159C157.18 263.442 155.251 265.236 152.614 266.066L151.467 264.235C154.836 263.21 156.936 260.573 156.936 257.741V257.619H152.077V255.764H156.936V253.2H159.279V255.764H164.089V257.619H159.255V257.741ZM169.265 253.225V266.555H166.945V253.225H169.265ZM161.916 266.97C166.506 266.97 169.338 268.459 169.338 270.998C169.338 273.562 166.506 275.051 161.916 275.026C157.302 275.051 154.47 273.562 154.47 270.998C154.47 268.459 157.302 266.97 161.916 266.97ZM161.916 268.801C158.669 268.801 156.813 269.606 156.813 270.998C156.813 272.438 158.669 273.244 161.916 273.244C165.163 273.244 167.043 272.438 167.043 270.998C167.043 269.606 165.163 268.801 161.916 268.801ZM178.153 266.262C178.178 261.672 179.472 257.839 181.767 254.567H184.159C182.475 256.984 180.863 261.916 180.863 266.262C180.863 270.632 182.475 275.539 184.159 277.98H181.767C179.472 274.709 178.178 270.876 178.153 266.262ZM194.731 253.518C199.565 253.518 202.544 254.958 202.544 257.57C202.544 259.938 200.017 261.367 195.83 261.574V263.405H204.717V265.285H184.771V263.405H193.584V261.574C189.446 261.354 186.919 259.926 186.919 257.57C186.919 254.958 189.922 253.518 194.731 253.518ZM194.731 255.275C191.338 255.251 189.287 256.105 189.312 257.57C189.287 258.986 191.338 259.816 194.731 259.816C198.125 259.816 200.151 258.986 200.151 257.57C200.151 256.105 198.125 255.251 194.731 255.275ZM189.531 266.481V268.679H199.883V266.481H202.202V274.807H187.236V266.481H189.531ZM189.531 272.927H199.883V270.485H189.531V272.927ZM213.092 257.155C213.092 260.305 215.069 263.308 218.316 264.577L217.047 266.384C214.654 265.419 212.896 263.503 211.969 261.11C211.029 263.674 209.161 265.7 206.622 266.726L205.377 264.87C208.746 263.625 210.772 260.5 210.797 257.155V254.445H213.092V257.155ZM223.614 253.225V269.509H221.295V262.624H217.047V260.744H221.295V258.205H217.047V256.325H221.295V253.225H223.614ZM224.103 272.731V274.611H209.332V267.873H211.676V272.731H224.103ZM238.802 257.204C238.802 260.158 240.779 263.039 244.075 264.187L242.806 265.993C240.413 265.078 238.631 263.271 237.703 260.988C236.751 263.527 234.883 265.529 232.308 266.506L231.062 264.675C234.456 263.454 236.482 260.427 236.507 257.131V254.543H238.802V257.204ZM249.324 253.225V269.533H247.005V260.109H242.391V258.205H247.005V253.225H249.324ZM249.812 272.731V274.611H235.042V267.702H237.386V272.731H249.812ZM261.142 254.763V256.643H254.818V259.084H260.897V260.866H254.818V263.527C257.748 263.503 259.677 263.393 261.923 262.966L262.143 264.87C259.579 265.358 257.504 265.456 254.013 265.432H252.597V254.763H261.142ZM270.346 253.225V266.506H268.148V260.671H265.463V266.335H263.29V253.615H265.463V258.791H268.148V253.225H270.346ZM270.346 267.556V275.075H268.051V269.436H255.478V267.556H270.346ZM294.444 253.2V261.916H297.838V263.845H294.444V275.051H292.125V253.2H294.444ZM288.731 255.495C288.707 261.818 285.924 267.458 278.722 271.022L277.428 269.216C282.909 266.481 285.887 262.526 286.363 257.424H278.526V255.495H288.731ZM315.686 259.108V260.988H300.671V253.591H302.966V259.108H315.686ZM317.98 263.308V265.212H298.01V263.308H317.98ZM307.971 266.994C312.683 266.994 315.515 268.435 315.515 270.974C315.515 273.537 312.683 274.978 307.971 274.978C303.234 274.978 300.378 273.537 300.378 270.974C300.378 268.435 303.234 266.994 307.971 266.994ZM307.971 268.801C304.626 268.825 302.722 269.558 302.722 270.974C302.722 272.365 304.626 273.195 307.971 273.195C311.267 273.195 313.195 272.365 313.195 270.974C313.195 269.558 311.267 268.825 307.971 268.801ZM324.622 266.262C324.598 270.876 323.304 274.709 321.009 277.98H318.616C320.301 275.539 321.912 270.632 321.912 266.262C321.912 261.916 320.301 256.984 318.616 254.567H321.009C323.304 257.839 324.598 261.672 324.622 266.262ZM69.6646 308.728C68.1509 308.728 66.9058 307.482 66.9058 305.944C66.9058 304.431 68.1509 303.186 69.6646 303.186C71.2026 303.186 72.4478 304.431 72.4478 305.944C72.4478 307.482 71.2026 308.728 69.6646 308.728ZM109.325 310.388V312.341H89.3057V310.388H109.325ZM107.494 295.3V297.204H104.149V304.504H107.421V306.359H91.0635V304.504H94.335V297.204H91.0146V295.3H107.494ZM96.6299 304.504H101.879V297.204H96.6299V304.504ZM129.932 310.51V312.463H109.912V310.51H118.726V306.677H112.354V299.719H125.195V296.643H112.305V294.738H127.49V301.574H114.648V304.772H128.003V306.677H121.021V310.51H129.932ZM148.707 293.2V304.504H146.363V293.2H148.707ZM148.707 305.505V310.925H136.524V313H149.464V314.855H134.254V309.24H146.412V307.336H134.181V305.505H148.707ZM143.36 294.641V296.472H141.261V301.647C142.323 301.574 143.373 301.477 144.361 301.354L144.459 303.039C140.089 303.698 134.986 303.845 131.153 303.845L130.885 301.989C131.715 301.989 132.618 301.977 133.546 301.965V296.472H131.471V294.641H143.36ZM135.768 301.916C136.842 301.879 137.94 301.843 139.039 301.77V296.472H135.768V301.916ZM174.588 306.872V308.752H162.405V312.927H174.905V314.807H160.086V306.872H174.588ZM174.466 293.2V305.7H172.146V300.5H167.898C167.459 303.063 165.201 304.846 162.283 304.846C158.987 304.846 156.546 302.648 156.546 299.621C156.546 296.545 158.987 294.348 162.283 294.372C165.152 294.348 167.386 296.069 167.874 298.596H172.146V293.2H174.466ZM162.283 296.325C160.232 296.301 158.768 297.644 158.768 299.621C158.768 301.525 160.232 302.868 162.283 302.868C164.261 302.868 165.75 301.525 165.75 299.621C165.75 297.644 164.261 296.301 162.283 296.325ZM182.768 294.836C185.734 294.836 187.907 297.351 188.261 301.403H192.777V293.2H195.072V315.124H192.777V303.283H188.285C188.029 307.543 185.807 310.192 182.768 310.192C179.496 310.192 177.201 307.214 177.226 302.502C177.201 297.814 179.496 294.836 182.768 294.836ZM182.768 296.911C180.79 296.911 179.423 299.06 179.423 302.502C179.423 305.969 180.79 308.117 182.768 308.117C184.745 308.117 186.112 305.969 186.112 302.502C186.112 299.06 184.745 296.911 182.768 296.911ZM217.461 310.437V312.365H197.441V310.437H206.255V305.944H199.736V294.689H202.056V298.449H212.798V294.689H215.093V305.944H208.55V310.437H217.461ZM202.056 304.064H212.798V300.329H202.056V304.064ZM236.236 293.2V315.075H233.893V293.2H236.236ZM229.718 295.544C229.718 301.94 226.983 307.507 219.488 311.096L218.268 309.216C224.09 306.445 226.922 302.502 227.374 297.399H219.317V295.544H229.718ZM69.6646 348.728C68.1509 348.728 66.9058 347.482 66.9058 345.944C66.9058 344.431 68.1509 343.186 69.6646 343.186C71.2026 343.186 72.4478 344.431 72.4478 345.944C72.4478 347.482 71.2026 348.728 69.6646 348.728ZM96.8496 336.691C96.8496 339.572 98.8516 342.233 102.123 343.308L100.878 345.139C98.4854 344.296 96.6909 342.587 95.751 340.427C94.7866 342.88 92.9312 344.797 90.3799 345.749L89.1348 343.894C92.5527 342.673 94.5303 339.768 94.5547 336.496V334.348H96.8496V336.691ZM106.493 333.2V338.693H109.667V340.646H106.493V346.408H104.174V333.2H106.493ZM99.4375 346.921C103.93 346.921 106.688 348.41 106.688 350.974C106.688 353.562 103.93 355.051 99.4375 355.026C94.8965 355.051 92.0889 353.562 92.0889 350.974C92.0889 348.41 94.8965 346.921 99.4375 346.921ZM99.4375 348.752C96.2637 348.752 94.3838 349.582 94.4082 350.974C94.3838 352.414 96.2637 353.195 99.4375 353.22C102.587 353.195 104.418 352.414 104.418 350.974C104.418 349.582 102.587 348.752 99.4375 348.752ZM128.687 333.2V355.075H126.465V343.771H123.633V353.952H121.509V333.64H123.633V341.867H126.465V333.2H128.687ZM118.848 335.837V337.717H112.964V347.849C115.649 347.824 117.676 347.702 120.02 347.263L120.19 349.167C117.554 349.704 115.308 349.802 112.109 349.826H110.645V335.837H118.848ZM140.65 346.823C145.167 346.823 147.901 348.337 147.901 350.925C147.901 353.537 145.167 355.051 140.65 355.075C136.085 355.051 133.302 353.537 133.302 350.925C133.302 348.337 136.085 346.823 140.65 346.823ZM140.65 348.654C137.477 348.654 135.597 349.46 135.621 350.925C135.597 352.39 137.477 353.22 140.65 353.22C143.8 353.22 145.631 352.39 145.631 350.925C145.631 349.46 143.8 348.654 140.65 348.654ZM147.706 333.2V338.547H150.88V340.524H147.706V346.262H145.387V333.2H147.706ZM133.644 334.567V337.717H139.381V334.567H141.676V344.724H131.373V334.567H133.644ZM133.644 342.868H139.381V339.548H133.644V342.868ZM163.308 335.544V336.887C163.308 338.718 163.308 341.55 162.673 345.456L160.378 345.285C160.927 341.782 160.988 339.255 161.013 337.424H152.126V335.544H163.308ZM157.692 341.794V348.337C160.024 348.264 162.392 348.105 164.577 347.824L164.699 349.558C160.134 350.29 155.056 350.388 151.174 350.363L150.905 348.483C152.272 348.471 153.798 348.459 155.397 348.41V341.794H157.692ZM168.166 333.2V342.233H171.511V344.211H168.166V355.075H165.822V333.2H168.166ZM183.378 339.89C183.378 343.283 184.965 346.823 188.017 348.41L186.698 350.144C184.586 349.021 183.109 346.933 182.328 344.455C181.535 347.092 180.07 349.375 177.958 350.607L176.591 348.898C179.594 347.141 181.181 343.405 181.205 339.89V339.084H177.152V337.155H181.205V333.981H183.378V337.155H187.357V339.084H183.378V339.89ZM195.731 333.2V355.075H193.51V343.845H190.897V354.001H188.7V333.615H190.897V341.892H193.51V333.2H195.731ZM209.209 334.787V336.643H201.03V339.06H208.599V340.891H201.03V343.381C205.413 343.405 207.964 343.332 210.918 342.819L211.162 344.699C207.988 345.212 205.278 345.285 200.493 345.285H198.687V334.787H209.209ZM215.581 333.225V346.677H213.262V333.225H215.581ZM208.257 346.97C212.847 346.97 215.703 348.459 215.703 350.998C215.703 353.562 212.847 355.051 208.257 355.026C203.618 355.051 200.811 353.562 200.811 350.998C200.811 348.459 203.618 346.97 208.257 346.97ZM208.257 348.801C204.985 348.801 203.13 349.606 203.13 350.998C203.13 352.438 204.985 353.244 208.257 353.244C211.455 353.244 213.384 352.438 213.384 350.998C213.384 349.606 211.455 348.801 208.257 348.801ZM240.192 333.2V341.916H243.586V343.845H240.192V355.051H237.873V333.2H240.192ZM234.479 335.495C234.455 341.818 231.672 347.458 224.47 351.022L223.176 349.216C228.657 346.481 231.635 342.526 232.111 337.424H224.274V335.495H234.479ZM261.434 339.108V340.988H246.419V333.591H248.714V339.108H261.434ZM263.729 343.308V345.212H243.758V343.308H263.729ZM253.719 346.994C258.431 346.994 261.263 348.435 261.263 350.974C261.263 353.537 258.431 354.978 253.719 354.978C248.982 354.978 246.126 353.537 246.126 350.974C246.126 348.435 248.982 346.994 253.719 346.994ZM253.719 348.801C250.374 348.825 248.47 349.558 248.47 350.974C248.47 352.365 250.374 353.195 253.719 353.195C257.015 353.195 258.943 352.365 258.943 350.974C258.943 349.558 257.015 348.825 253.719 348.801ZM69.6646 388.728C68.1509 388.728 66.9058 387.482 66.9058 385.944C66.9058 384.431 68.1509 383.186 69.6646 383.186C71.2026 383.186 72.4478 384.431 72.4478 385.944C72.4478 387.482 71.2026 388.728 69.6646 388.728ZM100.463 375.422C100.438 381.867 98.3389 387.604 90.5752 391.56L89.2812 389.802C93.1143 387.836 95.4824 385.48 96.8008 382.697L89.7207 383.381L89.3545 381.379L97.5332 380.866C97.8628 379.743 98.0703 378.547 98.168 377.302H90.4775V375.422H100.463ZM107.519 373.2V395.075H105.224V383.771H100.414V381.867H105.224V373.2H107.519ZM127.979 373.859V375.617H124.805V379.401H127.881V381.184H111.841V379.401H114.941V375.617H111.743V373.859H127.979ZM129.858 382.795V384.626H109.912V382.795H129.858ZM127.344 386.335V391.34H114.6V393.098H127.954V394.855H112.329V389.704H125.049V388.068H112.305V386.335H127.344ZM117.236 379.401H122.485V375.617H117.236V379.401ZM149.342 373.2V395.075H147.12V383.674H144.41V394.001H142.213V373.615H144.41V381.77H147.12V373.2H149.342ZM139.747 375.666V389.313H131.251V375.666H139.747ZM133.448 377.497V387.458H137.574V377.497H133.448ZM169.289 373.2V395.075H166.97V373.2H169.289ZM154.763 375.324V387.507C157.949 387.482 161.306 387.226 164.821 386.506L165.139 388.459C161.257 389.24 157.741 389.509 154.299 389.509H152.468V375.324H154.763ZM189.993 373.2V395.124H187.674V382.966H183.157V381.062H187.674V373.2H189.993ZM179.544 379.353C179.544 383.063 181.863 387.043 185.232 388.532L183.841 390.388C181.314 389.167 179.361 386.616 178.396 383.625C177.42 386.811 175.43 389.533 172.903 390.827L171.487 389.021C174.832 387.434 177.176 383.283 177.2 379.353V377.302H172.366V375.397H184.402V377.302H179.544V379.353ZM217.461 390.388V392.292H197.441V390.388H206.206V385.188H208.501V390.388H217.461ZM208.55 376.252C208.55 379.719 212.358 382.966 216.582 383.674L215.581 385.578C212.041 384.87 208.782 382.685 207.329 379.67C205.889 382.673 202.666 384.895 199.15 385.578L198.125 383.674C202.324 382.966 206.108 379.719 206.108 376.252V374.592H208.55V376.252ZM236.773 373.2V395.075H234.552V383.723H231.842V394.025H229.669V373.786H231.842V381.843H234.552V373.2H236.773ZM227.496 375.983C227.472 381.745 225.567 386.896 219.317 390.437L217.975 388.825C222.833 386.079 224.884 382.355 225.25 377.888H218.902V375.983H227.496ZM262.581 373.2V395.075H260.359V383.674H257.649V394.001H255.452V373.615H257.649V381.77H260.359V373.2H262.581ZM252.986 375.666V389.313H244.49V375.666H252.986ZM246.688 377.497V387.458H250.813V377.497H246.688ZM272.494 377.741C272.494 380.354 274.643 382.795 278.036 383.723L276.938 385.529C274.374 384.821 272.421 383.234 271.396 381.159C270.419 383.442 268.49 385.236 265.854 386.066L264.706 384.235C268.075 383.21 270.175 380.573 270.175 377.741V377.619H265.316V375.764H270.175V373.2H272.519V375.764H277.328V377.619H272.494V377.741ZM282.504 373.225V386.555H280.185V373.225H282.504ZM275.155 386.97C279.745 386.97 282.577 388.459 282.577 390.998C282.577 393.562 279.745 395.051 275.155 395.026C270.541 395.051 267.709 393.562 267.709 390.998C267.709 388.459 270.541 386.97 275.155 386.97ZM275.155 388.801C271.908 388.801 270.053 389.606 270.053 390.998C270.053 392.438 271.908 393.244 275.155 393.244C278.402 393.244 280.282 392.438 280.282 390.998C280.282 389.606 278.402 388.801 275.155 388.801ZM297.105 393.244C293.443 393.244 290.831 391.267 290.733 388.386H293.468C293.565 389.948 295.104 390.925 297.081 390.925C299.205 390.925 300.768 389.753 300.768 388.044C300.768 386.311 299.303 385.041 296.788 385.041H295.274V382.844H296.788C298.79 382.844 300.206 381.721 300.206 380.036C300.206 378.425 299.01 377.326 297.13 377.326C295.348 377.326 293.785 378.303 293.712 379.914H291.124C291.197 377.033 293.858 375.08 297.154 375.08C300.621 375.08 302.818 377.277 302.794 379.89C302.818 381.892 301.573 383.356 299.669 383.82V383.942C302.086 384.284 303.478 385.896 303.478 388.142C303.478 391.096 300.768 393.244 297.105 393.244ZM322.766 373.2V395.075H320.446V373.2H322.766ZM304.797 389.118C306.591 389.106 308.654 389.094 310.803 389.021V386.848C308.239 386.518 306.579 385.017 306.604 382.868C306.579 380.402 308.728 378.767 311.901 378.767C315.1 378.767 317.297 380.402 317.297 382.868C317.297 384.992 315.637 386.481 313.098 386.823V388.947C315.124 388.862 317.175 388.703 319.104 388.459L319.274 390.192C314.416 390.998 309.118 391.047 305.114 391.047L304.797 389.118ZM318.615 375.812V377.668H305.261V375.812H310.803V373.249H313.122V375.812H318.615ZM311.901 380.573C310.07 380.573 308.776 381.477 308.801 382.868C308.776 384.26 310.07 385.114 311.901 385.114C313.781 385.114 315.075 384.26 315.075 382.868C315.075 381.477 313.781 380.573 311.901 380.573Z" fill="#323232"/>
</svg>
