<svg width="1000" height="500" viewBox="0 0 1000 500" fill="none" xmlns="http://www.w3.org/2000/svg">
<rect width="1000" height="500" fill="#FBFBFB"/>
<path d="M107.25 181H60.668V53.7344H107.25C146.098 53.7344 170.004 77.6406 170.004 117.367C170.004 157.094 146.098 181 107.25 181ZM90.5508 155.336H106.195C127.992 155.336 139.945 144.965 139.945 117.367C139.945 89.7695 127.992 79.2227 105.844 79.2227H90.5508V155.336Z" fill="#A0C2AC"/>
<path d="M175.805 164.779C175.805 151.889 185.795 147.27 197.397 146.518C201.586 146.249 208.891 145.98 211.362 145.873V141.146C211.362 137.064 208.354 134.809 203.412 134.809C198.579 134.809 195.571 136.85 194.819 140.717H177.954C178.705 130.404 187.514 121.918 203.842 121.918C218.237 121.918 229.516 128.793 229.516 141.361V181H212.436V172.836H212.006C208.784 178.744 203.198 182.074 195.034 182.074C183.862 182.074 175.805 176.381 175.805 164.779ZM192.993 164.027C192.993 168.002 196.108 170.043 200.512 170.043C206.635 170.043 211.577 166.068 211.469 160.268V156.508C209.267 156.615 203.09 156.884 200.405 157.152C195.893 157.689 192.993 160.16 192.993 164.027ZM237.388 181V103.227H255.435V132.66H255.864C258.12 127.396 263.062 121.918 272.407 121.918C284.654 121.918 295.718 131.371 295.718 151.889C295.718 171.654 285.298 181.859 272.3 181.859C263.384 181.859 258.228 176.811 255.864 171.547H255.327V181H237.388ZM255.113 151.781C255.113 161.449 259.195 167.68 266.177 167.68C273.159 167.68 277.134 161.449 277.134 151.781C277.134 142.328 273.267 136.098 266.177 136.098C259.087 136.098 255.113 142.113 255.113 151.781ZM302.086 181V103.227H320.133V132.66H320.562C322.818 127.396 327.76 121.918 337.105 121.918C349.352 121.918 360.416 131.371 360.416 151.889C360.416 171.654 349.996 181.859 336.998 181.859C328.082 181.859 322.926 176.811 320.562 171.547H320.025V181H302.086ZM319.811 151.781C319.811 161.449 323.893 167.68 330.875 167.68C337.857 167.68 341.832 161.449 341.832 151.781C341.832 142.328 337.965 136.098 330.875 136.098C323.785 136.098 319.811 142.113 319.811 151.781ZM384.831 103.227V181H366.677V103.227H384.831ZM420.31 182.074C402.048 182.074 390.877 170.688 390.877 152.104C390.877 134.057 402.156 121.918 419.666 121.918C435.994 121.918 447.81 132.338 447.81 151.674V156.293H408.709V156.615C408.709 164.135 413.328 168.969 420.632 168.969C425.574 168.969 429.226 166.82 430.73 163.383H447.595C445.447 174.77 435.457 182.074 420.31 182.074ZM408.709 145.658H430.945C430.837 139.428 426.326 135.023 420.095 135.023C413.65 135.023 408.977 139.589 408.709 145.658Z" fill="#323232"/>
<path d="M69.6646 268.728C68.1509 268.728 66.9058 267.482 66.9058 265.944C66.9058 264.431 68.1509 263.186 69.6646 263.186C71.2026 263.186 72.4478 264.431 72.4478 265.944C72.4478 267.482 71.2026 268.728 69.6646 268.728ZM107.958 253.225V269.484H105.761V261.55H103.075V268.898H100.902V253.615H103.075V259.646H105.761V253.225H107.958ZM108.593 272.731V274.611H93.4561V267.971H95.751V272.731H108.593ZM98.5342 255.056V261.477H92.5283V264.431C95.2383 264.431 97.3013 264.284 99.7061 263.82L99.9502 265.676C97.1914 266.188 94.9209 266.286 91.7227 266.286H90.2822V259.719H96.3125V256.911H90.2334V255.056H98.5342ZM121.368 254.567V256.447H113.653V262.99C117.535 262.978 119.854 262.868 122.516 262.331L122.735 264.211C119.854 264.772 117.364 264.919 113.019 264.919H111.358V254.567H121.368ZM128.399 253.2V265.847H126.08V260.329H120.147V258.425H126.08V253.2H128.399ZM128.399 266.896V274.782H113.971V266.896H128.399ZM116.266 268.728V272.902H126.129V268.728H116.266ZM149.842 253.2V275.075H147.62V263.674H144.91V274.001H142.713V253.615H144.91V261.77H147.62V253.2H149.842ZM140.247 255.666V269.313H131.751V255.666H140.247ZM133.948 257.497V267.458H138.074V257.497H133.948ZM160.005 257.741C160.005 260.354 162.153 262.795 165.547 263.723L164.448 265.529C161.885 264.821 159.932 263.234 158.906 261.159C157.93 263.442 156.001 265.236 153.364 266.066L152.217 264.235C155.586 263.21 157.686 260.573 157.686 257.741V257.619H152.827V255.764H157.686V253.2H160.029V255.764H164.839V257.619H160.005V257.741ZM170.015 253.225V266.555H167.695V253.225H170.015ZM162.666 266.97C167.256 266.97 170.088 268.459 170.088 270.998C170.088 273.562 167.256 275.051 162.666 275.026C158.052 275.051 155.22 273.562 155.22 270.998C155.22 268.459 158.052 266.97 162.666 266.97ZM162.666 268.801C159.419 268.801 157.563 269.606 157.563 270.998C157.563 272.438 159.419 273.244 162.666 273.244C165.913 273.244 167.793 272.438 167.793 270.998C167.793 269.606 165.913 268.801 162.666 268.801ZM185.556 255.324V273H182.846V258.01H182.748L178.524 260.769V258.205L182.919 255.324H185.556ZM195.45 273.244C191.349 273.244 188.956 269.948 188.956 264.162C188.956 258.425 191.397 255.08 195.45 255.08C199.503 255.08 201.944 258.425 201.944 264.162C201.944 269.948 199.527 273.244 195.45 273.244ZM195.45 270.925C197.843 270.925 199.259 268.581 199.259 264.162C199.259 259.768 197.818 257.351 195.45 257.351C193.082 257.351 191.642 259.768 191.642 264.162C191.642 268.581 193.058 270.925 195.45 270.925ZM221.312 253.2V275.075H218.992V253.2H221.312ZM203.343 269.118C205.137 269.106 207.2 269.094 209.349 269.021V266.848C206.785 266.518 205.125 265.017 205.149 262.868C205.125 260.402 207.273 258.767 210.447 258.767C213.646 258.767 215.843 260.402 215.843 262.868C215.843 264.992 214.183 266.481 211.644 266.823V268.947C213.67 268.862 215.721 268.703 217.649 268.459L217.82 270.192C212.962 270.998 207.664 271.047 203.66 271.047L203.343 269.118ZM217.161 255.812V257.668H203.807V255.812H209.349V253.249H211.668V255.812H217.161ZM210.447 260.573C208.616 260.573 207.322 261.477 207.347 262.868C207.322 264.26 208.616 265.114 210.447 265.114C212.327 265.114 213.621 264.26 213.621 262.868C213.621 261.477 212.327 260.573 210.447 260.573ZM230.749 266.262C230.773 261.672 232.067 257.839 234.362 254.567H236.755C235.07 256.984 233.459 261.916 233.459 266.262C233.459 270.632 235.07 275.539 236.755 277.98H234.362C232.067 274.709 230.773 270.876 230.749 266.262ZM247.577 253.518C252.411 253.518 255.39 254.958 255.39 257.57C255.39 259.938 252.863 261.367 248.676 261.574V263.405H257.562V265.285H237.616V263.405H246.43V261.574C242.292 261.354 239.765 259.926 239.765 257.57C239.765 254.958 242.768 253.518 247.577 253.518ZM247.577 255.275C244.184 255.251 242.133 256.105 242.157 257.57C242.133 258.986 244.184 259.816 247.577 259.816C250.971 259.816 252.997 258.986 252.997 257.57C252.997 256.105 250.971 255.251 247.577 255.275ZM242.377 266.481V268.679H252.729V266.481H255.048V274.807H240.082V266.481H242.377ZM242.377 272.927H252.729V270.485H242.377V272.927ZM266.188 257.155C266.188 260.305 268.165 263.308 271.412 264.577L270.143 266.384C267.75 265.419 265.992 263.503 265.064 261.11C264.125 263.674 262.257 265.7 259.718 266.726L258.473 264.87C261.842 263.625 263.868 260.5 263.893 257.155V254.445H266.188V257.155ZM276.71 253.225V269.509H274.391V262.624H270.143V260.744H274.391V258.205H270.143V256.325H274.391V253.225H276.71ZM277.198 272.731V274.611H262.428V267.873H264.771V272.731H277.198ZM292.397 257.204C292.397 260.158 294.375 263.039 297.671 264.187L296.401 265.993C294.009 265.078 292.227 263.271 291.299 260.988C290.347 263.527 288.479 265.529 285.903 266.506L284.658 264.675C288.052 263.454 290.078 260.427 290.103 257.131V254.543H292.397V257.204ZM302.92 253.225V269.533H300.601V260.109H295.986V258.205H300.601V253.225H302.92ZM303.408 272.731V274.611H288.638V267.702H290.981V272.731H303.408ZM314.987 254.763V256.643H308.664V259.084H314.743V260.866H308.664V263.527C311.594 263.503 313.522 263.393 315.769 262.966L315.988 264.87C313.425 265.358 311.35 265.456 307.858 265.432H306.442V254.763H314.987ZM324.191 253.225V266.506H321.994V260.671H319.309V266.335H317.136V253.615H319.309V258.791H321.994V253.225H324.191ZM324.191 267.556V275.075H321.896V269.436H309.323V267.556H324.191ZM348.79 253.2V261.916H352.184V263.845H348.79V275.051H346.471V253.2H348.79ZM343.077 255.495C343.053 261.818 340.27 267.458 333.067 271.022L331.773 269.216C337.254 266.481 340.233 262.526 340.709 257.424H332.872V255.495H343.077ZM370.281 259.108V260.988H355.267V253.591H357.562V259.108H370.281ZM372.576 263.308V265.212H352.605V263.308H372.576ZM362.566 266.994C367.278 266.994 370.11 268.435 370.11 270.974C370.11 273.537 367.278 274.978 362.566 274.978C357.83 274.978 354.974 273.537 354.974 270.974C354.974 268.435 357.83 266.994 362.566 266.994ZM362.566 268.801C359.222 268.825 357.317 269.558 357.317 270.974C357.317 272.365 359.222 273.195 362.566 273.195C365.862 273.195 367.791 272.365 367.791 270.974C367.791 269.558 365.862 268.825 362.566 268.801ZM379.468 266.262C379.443 270.876 378.149 274.709 375.854 277.98H373.462C375.146 275.539 376.758 270.632 376.758 266.262C376.758 261.916 375.146 256.984 373.462 254.567H375.854C378.149 257.839 379.443 261.672 379.468 266.262ZM69.6646 308.728C68.1509 308.728 66.9058 307.482 66.9058 305.944C66.9058 304.431 68.1509 303.186 69.6646 303.186C71.2026 303.186 72.4478 304.431 72.4478 305.944C72.4478 307.482 71.2026 308.728 69.6646 308.728ZM109.325 310.388V312.341H89.3057V310.388H109.325ZM107.494 295.3V297.204H104.149V304.504H107.421V306.359H91.0635V304.504H94.335V297.204H91.0146V295.3H107.494ZM96.6299 304.504H101.879V297.204H96.6299V304.504ZM130.182 310.51V312.463H110.162V310.51H118.976V306.677H112.604V299.719H125.445V296.643H112.555V294.738H127.74V301.574H114.898V304.772H128.253V306.677H121.271V310.51H130.182ZM149.207 293.2V304.504H146.863V293.2H149.207ZM149.207 305.505V310.925H137.024V313H149.964V314.855H134.754V309.24H146.912V307.336H134.681V305.505H149.207ZM143.86 294.641V296.472H141.761V301.647C142.823 301.574 143.873 301.477 144.861 301.354L144.959 303.039C140.589 303.698 135.486 303.845 131.653 303.845L131.385 301.989C132.215 301.989 133.118 301.977 134.046 301.965V296.472H131.971V294.641H143.86ZM136.268 301.916C137.342 301.879 138.44 301.843 139.539 301.77V296.472H136.268V301.916ZM175.588 306.872V308.752H163.405V312.927H175.905V314.807H161.086V306.872H175.588ZM175.466 293.2V305.7H173.146V300.5H168.898C168.459 303.063 166.201 304.846 163.283 304.846C159.987 304.846 157.546 302.648 157.546 299.621C157.546 296.545 159.987 294.348 163.283 294.372C166.152 294.348 168.386 296.069 168.874 298.596H173.146V293.2H175.466ZM163.283 296.325C161.232 296.301 159.768 297.644 159.768 299.621C159.768 301.525 161.232 302.868 163.283 302.868C165.261 302.868 166.75 301.525 166.75 299.621C166.75 297.644 165.261 296.301 163.283 296.325ZM184.018 294.836C186.984 294.836 189.157 297.351 189.511 301.403H194.027V293.2H196.322V315.124H194.027V303.283H189.535C189.279 307.543 187.057 310.192 184.018 310.192C180.746 310.192 178.451 307.214 178.476 302.502C178.451 297.814 180.746 294.836 184.018 294.836ZM184.018 296.911C182.04 296.911 180.673 299.06 180.673 302.502C180.673 305.969 182.04 308.117 184.018 308.117C185.995 308.117 187.362 305.969 187.362 302.502C187.362 299.06 185.995 296.911 184.018 296.911ZM218.961 310.437V312.365H198.941V310.437H207.755V305.944H201.236V294.689H203.556V298.449H214.298V294.689H216.593V305.944H210.05V310.437H218.961ZM203.556 304.064H214.298V300.329H203.556V304.064ZM237.986 293.2V315.075H235.643V293.2H237.986ZM231.468 295.544C231.468 301.94 228.733 307.507 221.238 311.096L220.018 309.216C225.84 306.445 228.672 302.502 229.124 297.399H221.067V295.544H231.468ZM69.6646 348.728C68.1509 348.728 66.9058 347.482 66.9058 345.944C66.9058 344.431 68.1509 343.186 69.6646 343.186C71.2026 343.186 72.4478 344.431 72.4478 345.944C72.4478 347.482 71.2026 348.728 69.6646 348.728ZM96.8496 336.691C96.8496 339.572 98.8516 342.233 102.123 343.308L100.878 345.139C98.4854 344.296 96.6909 342.587 95.751 340.427C94.7866 342.88 92.9312 344.797 90.3799 345.749L89.1348 343.894C92.5527 342.673 94.5303 339.768 94.5547 336.496V334.348H96.8496V336.691ZM106.493 333.2V338.693H109.667V340.646H106.493V346.408H104.174V333.2H106.493ZM99.4375 346.921C103.93 346.921 106.688 348.41 106.688 350.974C106.688 353.562 103.93 355.051 99.4375 355.026C94.8965 355.051 92.0889 353.562 92.0889 350.974C92.0889 348.41 94.8965 346.921 99.4375 346.921ZM99.4375 348.752C96.2637 348.752 94.3838 349.582 94.4082 350.974C94.3838 352.414 96.2637 353.195 99.4375 353.22C102.587 353.195 104.418 352.414 104.418 350.974C104.418 349.582 102.587 348.752 99.4375 348.752ZM128.937 333.2V355.075H126.715V343.771H123.883V353.952H121.759V333.64H123.883V341.867H126.715V333.2H128.937ZM119.098 335.837V337.717H113.214V347.849C115.899 347.824 117.926 347.702 120.27 347.263L120.44 349.167C117.804 349.704 115.558 349.802 112.359 349.826H110.895V335.837H119.098ZM141.15 346.823C145.667 346.823 148.401 348.337 148.401 350.925C148.401 353.537 145.667 355.051 141.15 355.075C136.585 355.051 133.802 353.537 133.802 350.925C133.802 348.337 136.585 346.823 141.15 346.823ZM141.15 348.654C137.977 348.654 136.097 349.46 136.121 350.925C136.097 352.39 137.977 353.22 141.15 353.22C144.3 353.22 146.131 352.39 146.131 350.925C146.131 349.46 144.3 348.654 141.15 348.654ZM148.206 333.2V338.547H151.38V340.524H148.206V346.262H145.887V333.2H148.206ZM134.144 334.567V337.717H139.881V334.567H142.176V344.724H131.873V334.567H134.144ZM134.144 342.868H139.881V339.548H134.144V342.868ZM164.058 335.544V336.887C164.058 338.718 164.058 341.55 163.423 345.456L161.128 345.285C161.677 341.782 161.738 339.255 161.763 337.424H152.876V335.544H164.058ZM158.442 341.794V348.337C160.774 348.264 163.142 348.105 165.327 347.824L165.449 349.558C160.884 350.29 155.806 350.388 151.924 350.363L151.655 348.483C153.022 348.471 154.548 348.459 156.147 348.41V341.794H158.442ZM168.916 333.2V342.233H172.261V344.211H168.916V355.075H166.572V333.2H168.916ZM184.628 339.89C184.628 343.283 186.215 346.823 189.267 348.41L187.948 350.144C185.836 349.021 184.359 346.933 183.578 344.455C182.785 347.092 181.32 349.375 179.208 350.607L177.841 348.898C180.844 347.141 182.431 343.405 182.455 339.89V339.084H178.402V337.155H182.455V333.981H184.628V337.155H188.607V339.084H184.628V339.89ZM196.981 333.2V355.075H194.76V343.845H192.147V354.001H189.95V333.615H192.147V341.892H194.76V333.2H196.981ZM210.709 334.787V336.643H202.53V339.06H210.099V340.891H202.53V343.381C206.913 343.405 209.464 343.332 212.418 342.819L212.662 344.699C209.488 345.212 206.778 345.285 201.993 345.285H200.187V334.787H210.709ZM217.081 333.225V346.677H214.762V333.225H217.081ZM209.757 346.97C214.347 346.97 217.203 348.459 217.203 350.998C217.203 353.562 214.347 355.051 209.757 355.026C205.118 355.051 202.311 353.562 202.311 350.998C202.311 348.459 205.118 346.97 209.757 346.97ZM209.757 348.801C206.485 348.801 204.63 349.606 204.63 350.998C204.63 352.438 206.485 353.244 209.757 353.244C212.955 353.244 214.884 352.438 214.884 350.998C214.884 349.606 212.955 348.801 209.757 348.801ZM242.192 333.2V341.916H245.586V343.845H242.192V355.051H239.873V333.2H242.192ZM236.479 335.495C236.455 341.818 233.672 347.458 226.47 351.022L225.176 349.216C230.657 346.481 233.635 342.526 234.111 337.424H226.274V335.495H236.479ZM263.684 339.108V340.988H248.669V333.591H250.964V339.108H263.684ZM265.979 343.308V345.212H246.008V343.308H265.979ZM255.969 346.994C260.681 346.994 263.513 348.435 263.513 350.974C263.513 353.537 260.681 354.978 255.969 354.978C251.232 354.978 248.376 353.537 248.376 350.974C248.376 348.435 251.232 346.994 255.969 346.994ZM255.969 348.801C252.624 348.825 250.72 349.558 250.72 350.974C250.72 352.365 252.624 353.195 255.969 353.195C259.265 353.195 261.193 352.365 261.193 350.974C261.193 349.558 259.265 348.825 255.969 348.801Z" fill="#323232"/>
</svg>
