<svg width="34" height="34" viewBox="0 0 34 34" fill="none" xmlns="http://www.w3.org/2000/svg">
<path d="M14.353 15.3326C16.2251 15.3326 18.0205 14.6303 19.3443 13.3801C20.6681 12.1299 21.4118 10.4343 21.4118 8.66632C21.4118 6.8983 20.6681 5.2027 19.3443 3.95252C18.0205 2.70234 16.2251 2 14.353 2C12.4808 2 10.6854 2.70234 9.36161 3.95252C8.03782 5.2027 7.29413 6.8983 7.29413 8.66632C7.29413 10.4343 8.03782 12.1299 9.36161 13.3801C10.6854 14.6303 12.4808 15.3326 14.353 15.3326Z" stroke="#A0C2AC" stroke-width="4" stroke-linecap="round" stroke-linejoin="round"/>
<path d="M32 24.1333C31.9998 25.1361 31.5799 26.0982 30.8318 26.8098C29.1094 28.4497 27.4383 30.1596 25.6506 31.7396C25.4509 31.9118 25.1888 32.0049 24.9184 31.9996C24.6481 31.9943 24.3902 31.8911 24.1983 31.7112L19.0488 26.8115C18.3003 26.0994 17.8802 25.1367 17.8802 24.1333C17.8802 23.1299 18.3003 22.1672 19.0488 21.4551C19.4224 21.0995 19.8668 20.8173 20.3564 20.6246C20.846 20.432 21.3711 20.3329 21.9015 20.3329C22.4319 20.3329 22.957 20.432 23.4466 20.6246C23.9362 20.8173 24.3806 21.0995 24.7541 21.4551L24.9412 21.6334L25.1283 21.4551C25.6892 20.9207 26.4058 20.5559 27.1868 20.407C27.9679 20.2582 28.7781 20.3319 29.5147 20.619C30.2512 20.9061 30.8807 21.3934 31.3233 22.0192C31.7658 22.6449 32.0014 23.3808 32 24.1333Z" stroke="#A0C2AC" stroke-width="4" stroke-linejoin="round"/>
<path d="M2 28.6671V27.0005C1.99957 25.0322 2.52647 23.0958 3.53165 21.3716C4.53684 19.6474 5.98762 18.1914 7.74895 17.1391C9.51027 16.0869 11.5249 15.4726 13.6052 15.3534C15.6856 15.2343 17.764 15.6142 19.6471 16.4577" stroke="#A0C2AC" stroke-width="4" stroke-linecap="round" stroke-linejoin="round"/>
</svg>
